<svg xmlns="http://www.w3.org/2000/svg" xmlns:oryx="http://oryx-editor.org" id="_CD7915E7-9E91-49EB-B317-F35C68F87ED2" width="698" height="265" xmlns:xlink="http://www.w3.org/1999/xlink" xmlns:svg="http://www.w3.org/2000/svg"><defs><marker id="_C680F52C-9839-463C-B972-0E9B568BC158start" refX="1" refY="5" markerUnits="userSpaceOnUse" markerWidth="17" markerHeight="11" orient="auto" fill="#000000" stroke="#000000"> 	  		<path id="_C680F52C-9839-463C-B972-0E9B568BC158conditional" d="M 0 5 L 8 0 L 16 5 L 8 10 L 0 5" fill="white" stroke="#000000" stroke-width="1" display="none"/> 			<path id="_C680F52C-9839-463C-B972-0E9B568BC158default" d="M 5 0 L 11 10" fill="white" stroke="#000000" stroke-width="1" display="none"/> 	  	</marker><marker id="_C680F52C-9839-463C-B972-0E9B568BC158end" refX="15" refY="6" markerUnits="userSpaceOnUse" markerWidth="15" markerHeight="12" orient="auto" fill="#000000" stroke="#000000"> 	  		<path id="_C680F52C-9839-463C-B972-0E9B568BC158frame2" d="M 0 1 L 15 6 L 0 11z" fill="#000000" stroke="#000000" stroke-linejoin="round" stroke-width="2"/> 	  	</marker><marker id="_21F74F7F-1AA2-4587-9DD6-732BA5CDC2F2start" refX="1" refY="5" markerUnits="userSpaceOnUse" markerWidth="17" markerHeight="11" orient="auto" fill="#000000" stroke="#000000"> 	  		<path id="_21F74F7F-1AA2-4587-9DD6-732BA5CDC2F2conditional" d="M 0 5 L 8 0 L 16 5 L 8 10 L 0 5" fill="white" stroke="#000000" stroke-width="1" display="none"/> 			<path id="_21F74F7F-1AA2-4587-9DD6-732BA5CDC2F2default" d="M 5 0 L 11 10" fill="white" stroke="#000000" stroke-width="1" display="none"/> 	  	</marker><marker id="_21F74F7F-1AA2-4587-9DD6-732BA5CDC2F2end" refX="15" refY="6" markerUnits="userSpaceOnUse" markerWidth="15" markerHeight="12" orient="auto" fill="#000000" stroke="#000000"> 	  		<path id="_21F74F7F-1AA2-4587-9DD6-732BA5CDC2F2frame2" d="M 0 1 L 15 6 L 0 11z" fill="#000000" stroke="#000000" stroke-linejoin="round" stroke-width="2"/> 	  	</marker><marker id="_87043961-0D7A-4E48-A1C0-154EE92559E6start" refX="1" refY="5" markerUnits="userSpaceOnUse" markerWidth="17" markerHeight="11" orient="auto" fill="#000000" stroke="#000000"> 	  		<path id="_87043961-0D7A-4E48-A1C0-154EE92559E6conditional" d="M 0 5 L 8 0 L 16 5 L 8 10 L 0 5" fill="white" stroke="#000000" stroke-width="1" display="none"/> 			<path id="_87043961-0D7A-4E48-A1C0-154EE92559E6default" d="M 5 0 L 11 10" fill="white" stroke="#000000" stroke-width="1" display="none"/> 	  	</marker><marker id="_87043961-0D7A-4E48-A1C0-154EE92559E6end" refX="15" refY="6" markerUnits="userSpaceOnUse" markerWidth="15" markerHeight="12" orient="auto" fill="#000000" stroke="#000000"> 	  		<path id="_87043961-0D7A-4E48-A1C0-154EE92559E6frame2" d="M 0 1 L 15 6 L 0 11z" fill="#000000" stroke="#000000" stroke-linejoin="round" stroke-width="2"/> 	  	</marker><marker id="_587A7137-D6D3-4ADD-B2BE-477B6A3983A3start" refX="1" refY="5" markerUnits="userSpaceOnUse" markerWidth="17" markerHeight="11" orient="auto" fill="#000000" stroke="#000000"> 	  		<path id="_587A7137-D6D3-4ADD-B2BE-477B6A3983A3conditional" d="M 0 5 L 8 0 L 16 5 L 8 10 L 0 5" fill="white" stroke="#000000" stroke-width="1" display="none"/> 			<path id="_587A7137-D6D3-4ADD-B2BE-477B6A3983A3default" d="M 5 0 L 11 10" fill="white" stroke="#000000" stroke-width="1" display="none"/> 	  	</marker><marker id="_587A7137-D6D3-4ADD-B2BE-477B6A3983A3end" refX="15" refY="6" markerUnits="userSpaceOnUse" markerWidth="15" markerHeight="12" orient="auto" fill="#000000" stroke="#000000"> 	  		<path id="_587A7137-D6D3-4ADD-B2BE-477B6A3983A3frame2" d="M 0 1 L 15 6 L 0 11z" fill="#000000" stroke="#000000" stroke-linejoin="round" stroke-width="2"/> 	  	</marker></defs><g stroke="none" font-family="Verdana, sans-serif" font-size-adjust="none" font-style="normal" font-variant="normal" font-weight="normal" line-heigth="normal" font-size="12"><g class="stencils" transform="translate(15, 16)"><g class="me"/><g class="children"><g id="_5639F603-3D03-4BCF-A80C-DD39649AEE78" bpmn2nodeid="processStartEvent"><g class="stencils" transform="translate(120, 165)"><g class="me"><g pointer-events="fill" id="_5639F603-3D03-4BCF-A80C-DD39649AEE78">        <defs id="_5639F603-3D03-4BCF-A80C-DD39649AEE78__5639F603-3D03-4BCF-A80C-DD39649AEE78_5"> 		<radialGradient id="_5639F603-3D03-4BCF-A80C-DD39649AEE78background" cx="10%" cy="10%" r="100%" fx="10%" fy="10%"> 			<stop offset="0%" stop-color="#ffffff" stop-opacity="1" id="_5639F603-3D03-4BCF-A80C-DD39649AEE78__5639F603-3D03-4BCF-A80C-DD39649AEE78_6"/> 			<stop id="_5639F603-3D03-4BCF-A80C-DD39649AEE78fill_el" offset="100%" stop-color="#9acd32" stop-opacity="1"/> 		</radialGradient> 	</defs> 	     <circle id="_5639F603-3D03-4BCF-A80C-DD39649AEE78bg_frame" cx="15" cy="15" r="15" stroke="#000000" fill="url(#_5639F603-3D03-4BCF-A80C-DD39649AEE78background) white" stroke-width="1" style="stroke-dasharray: 5.5, 3"/>      <circle id="_5639F603-3D03-4BCF-A80C-DD39649AEE78frame" cx="15" cy="15" r="15" stroke="#000000" fill="none" stroke-width="1" display="inherit"/>  	<text font-size="11" id="_5639F603-3D03-4BCF-A80C-DD39649AEE78text_name" x="15" y="32" oryx:align="top center" stroke="black" stroke-width="0pt" letter-spacing="-0.01px" fill="#000000" text-anchor="middle" transform="rotate(0 15 32)" visibility="inherit" oryx:fontSize="11"/>   </g></g><g class="children" style="overflow:hidden"/><g class="edge"/></g><g class="controls"><g class="dockers"/><g class="magnets" transform="translate(120, 165)"><g pointer-events="all" display="none" transform="translate(7, 7)"><circle cx="8" cy="8" r="4" stroke="none" fill="red" fill-opacity="0.3"/></g></g></g></g><g id="_3CD62A82-DA92-45A5-B177-8FD56A6C8302" bpmn2nodeid="_CCE1F373-908B-4F69-B60C-A9AE6A720C81"><g class="stencils" transform="translate(195, 140)"><g class="me"><g pointer-events="fill" oryx:minimumSize="50 40" id="_3CD62A82-DA92-45A5-B177-8FD56A6C8302">   	<defs id="_3CD62A82-DA92-45A5-B177-8FD56A6C8302__3CD62A82-DA92-45A5-B177-8FD56A6C8302_17"> 		<radialGradient id="_3CD62A82-DA92-45A5-B177-8FD56A6C8302background" cx="10%" cy="10%" r="100%" fx="10%" fy="10%"> 			<stop offset="0%" stop-color="#ffffff" stop-opacity="1" id="_3CD62A82-DA92-45A5-B177-8FD56A6C8302__3CD62A82-DA92-45A5-B177-8FD56A6C8302_18"/> 			<stop id="_3CD62A82-DA92-45A5-B177-8FD56A6C8302fill_el" offset="100%" stop-color="#fafad2" stop-opacity="1"/> 		</radialGradient> 		<radialGradient id="_3CD62A82-DA92-45A5-B177-8FD56A6C8302borderbackground" cx="10%" cy="10%" r="100%" fx="10%" fy="10%"> 			<stop offset="0%" stop-color="#ffffff" stop-opacity="1" id="_3CD62A82-DA92-45A5-B177-8FD56A6C8302__3CD62A82-DA92-45A5-B177-8FD56A6C8302_19"/> 			<stop id="_3CD62A82-DA92-45A5-B177-8FD56A6C8302fill_border" offset="100%" stop-color="#000000" stop-opacity="1" stroke="#000000"/> 		</radialGradient> 	</defs> 	 	<rect id="_3CD62A82-DA92-45A5-B177-8FD56A6C8302text_frame" oryx:anchors="bottom top right left" x="1" y="1" width="94" height="79" rx="10" ry="10" stroke="none" stroke-width="0" fill="none"/> 	<rect id="_3CD62A82-DA92-45A5-B177-8FD56A6C8302bg_frame" oryx:resize="vertical horizontal" x="0" y="0" width="100" height="80" rx="10" ry="10" stroke="#000000" stroke-width="1" fill="url(#_3CD62A82-DA92-45A5-B177-8FD56A6C8302background) #ffffcc"/> 		<text font-size="12" id="_3CD62A82-DA92-45A5-B177-8FD56A6C8302text_name" x="50" y="40" oryx:align="middle center" oryx:fittoelem="text_frame" stroke="black" text-anchor="middle" stroke-width="0pt" letter-spacing="-0.01px" fill="#000000" transform="rotate(0 50 40)" visibility="inherit" oryx:fontSize="12"><tspan x="50" y="40" dy="5">input</tspan></text>     <g id="_3CD62A82-DA92-45A5-B177-8FD56A6C8302manualTask" transform="scale(0.7,0.7) translate(8,8)" display="none">     	<path oryx:anchors="top left" id="_3CD62A82-DA92-45A5-B177-8FD56A6C8302frame" style="opacity:1;fill:none;fill-opacity:1;stroke-width:1" d="M0.5,3.751l4.083-3.25c0,0,11.166,0.083,12.083,0.083s-2.417,2.917-1.5,2.917     s11.667,0,12.584,0c1.166,1.708-0.168,3.167-0.834,3.667s0.875,1.917-1,4.417c-0.75,0.25,0.75,1.875-1.333,3.333     c-1.167,0.583,0.583,1.542-1.25,2.833c-1.167,0-20.833,0.083-20.833,0.083l-2-1.333V3.751z" stroke="#000000"/> 		<path id="_3CD62A82-DA92-45A5-B177-8FD56A6C8302frame2" oryx:anchors="top left" style="opacity:1;fill:none;stroke-width:2" d="M 13.5 7 L 27 7" stroke="#000000"/> 		<path id="_3CD62A82-DA92-45A5-B177-8FD56A6C8302frame3" oryx:anchors="top left" style="opacity:1;fill:none;stroke-width:2" d="M 13.5 11 L 26 11" stroke="#000000"/> 		<path id="_3CD62A82-DA92-45A5-B177-8FD56A6C8302frame4" oryx:anchors="top left" style="opacity:1;fill:none;stroke-width:1.5" d="M 14 14.5 L 25 14.5" stroke="#000000"/> 		<path id="_3CD62A82-DA92-45A5-B177-8FD56A6C8302frame5" oryx:anchors="top left" style="opacity:1;fill:none;stroke-width:1.5" d="M 8.2 3.1 L 15 3.1" stroke="#000000"/> 	</g> 	 	<g id="_3CD62A82-DA92-45A5-B177-8FD56A6C8302businessRuleTask" transform="scale(0.7,0.7) translate(8,8)" display="none"> 		<rect id="_3CD62A82-DA92-45A5-B177-8FD56A6C8302frame6" oryx:anchors="top left" x="0" y="0" width="22" height="4" style="opacity:1;fill:#B3B1B3;fill-opacity:1;" stroke="#000000"/> 		<rect id="_3CD62A82-DA92-45A5-B177-8FD56A6C8302frame7" oryx:anchors="top left" x="0" y="4" style="opacity:1;fill:none;" width="22" height="12" stroke="#000000"/> 		<path id="_3CD62A82-DA92-45A5-B177-8FD56A6C8302frame8" oryx:anchors="top left" style="opacity:1;fill:none;" d="M 0 10 L 22 10" stroke="#000000"/> 		<path id="_3CD62A82-DA92-45A5-B177-8FD56A6C8302frame9" oryx:anchors="top left" style="opacity:1; fill:none;" d="M 7 4 L 7 16" stroke="#000000"/> 	</g> 	 	<g id="_3CD62A82-DA92-45A5-B177-8FD56A6C8302scriptTask" transform="scale(0.7,0.7) translate(8,8)" display="inherit"> 		<path oryx:anchors="top left" id="_3CD62A82-DA92-45A5-B177-8FD56A6C8302frame10" style="opacity:1;fill:none;" stroke="#000000" d="M6.402,0.5h14.5c0,0-5.833,2.833-5.833,5.583s4.417,6,4.417,9.167    s-4.167,5.083-4.167,5.083H0.235c0,0,5-2.667,5-5s-4.583-6.75-4.583-9.25S6.402,0.5,6.402,0.5z"/> 		<path oryx:anchors="top left" id="_3CD62A82-DA92-45A5-B177-8FD56A6C8302frame11" style="opacity:1;fill:none;stroke-width:1.5" d="M 3.5 4.5 L 13.5 4.5" stroke="#000000"/> 		<path oryx:anchors="top left" id="_3CD62A82-DA92-45A5-B177-8FD56A6C8302frame12" style="opacity:1;fill:none;stroke-width:1.5" d="M 3.8 8.5 L 13.8 8.5" stroke="#000000"/> 		<path oryx:anchors="top left" id="_3CD62A82-DA92-45A5-B177-8FD56A6C8302frame13" style="opacity:1;fill:none;stroke-width:1.5" d="M 6.3 12.5 L 16.3 12.5" stroke="#000000"/> 		<path oryx:anchors="top left" id="_3CD62A82-DA92-45A5-B177-8FD56A6C8302frame14" style="opacity:1;fill:none;stroke-width:1.5" d="M 6.5 16.5 L 16.5 16.5" stroke="#000000"/> 	</g> 	 	<g id="_3CD62A82-DA92-45A5-B177-8FD56A6C8302userTask" transform="scale(0.7,0.7) translate(8,8)" display="none"> 		<path id="_3CD62A82-DA92-45A5-B177-8FD56A6C8302frame15" oryx:anchors="top left" style="opacity:1;fill:#F4F6F7" stroke="#000000" d="M0.585,24.167h24.083v-7.833c0,0-2.333-3.917-7.083-5.167h-9.25    c-4.417,1.333-7.833,5.75-7.833,5.75L0.585,24.167z"/> 		<path id="_3CD62A82-DA92-45A5-B177-8FD56A6C8302frame16" oryx:anchors="top left" style="opacity:1;fill:none" d="M 6 20 L 6 24" stroke="#000000"/> 		<path id="_3CD62A82-DA92-45A5-B177-8FD56A6C8302frame17" oryx:anchors="top left" style="opacity:1;fill:none" d="M 20 20 L 20 24" stroke="#000000"/> 		<circle id="_3CD62A82-DA92-45A5-B177-8FD56A6C8302frame18" oryx:anchors="top left" fill="black" cx="13.002" cy="5.916" r="5.417" stroke="#000000"/> 		<path id="_3CD62A82-DA92-45A5-B177-8FD56A6C8302frame19" oryx:anchors="top left" style="opacity:1;fill:#F0EFF0;" stroke="#000000" d="M8.043,7.083c0,0,2.814-2.426,5.376-1.807s4.624-0.693,4.624-0.693    c0.25,1.688,0.042,3.75-1.458,5.584c0,0,1.083,0.75,1.083,1.5s0.125,1.875-1,3s-5.5,1.25-6.75,0S8.668,12.834,8.668,12    s0.583-1.25,1.25-1.917C8.835,9.5,7.419,7.708,8.043,7.083z"/> 	</g> 	 	<g id="_3CD62A82-DA92-45A5-B177-8FD56A6C8302serviceTask" transform="scale(0.7,0.7) translate(8,8)" display="none"> 		<polygon oryx:anchors="top left" id="_3CD62A82-DA92-45A5-B177-8FD56A6C8302frame20" style="opacity:1;fill:#ffffff" stroke="#000000" points="15.392,5.064 17.954,2.502 20.347,4.895 17.786,7.455     18.729,9.732 22.353,9.732 22.353,13.115 18.731,13.115 17.788,15.392 20.351,17.955 17.958,20.347 15.397,17.786 13.12,18.729     13.12,22.353 9.737,22.353 9.737,18.731 7.46,17.788 4.897,20.35 2.506,17.958 5.066,15.397 4.124,13.12 0.5,13.12 0.5,9.737     4.121,9.737 5.065,7.461 2.503,4.898 4.895,2.506 7.455,5.066 9.732,4.125 9.732,0.5 13.116,0.5 13.116,4.121 "/> 		<circle oryx:anchors="top left" id="_3CD62A82-DA92-45A5-B177-8FD56A6C8302frame21" style="opacity:1;fill:none" stroke="#000000" cx="11.427" cy="11.426" r="3.714"/> 		<polygon oryx:anchors="top left" id="_3CD62A82-DA92-45A5-B177-8FD56A6C8302frame22" style="opacity:1;fill:#ffffff" stroke="#000000" points="21.392,11.064 23.954,8.502 26.347,10.895 23.786,13.455     24.729,15.732 28.353,15.732 28.353,19.115 24.731,19.115 23.788,21.392 26.351,23.955 23.958,26.347 21.397,23.786 19.12,24.729     19.12,28.353 15.737,28.353 15.737,24.731 13.46,23.788 10.897,26.35 8.506,23.958 11.066,21.397 10.124,19.12 6.5,19.12     6.5,15.737 10.121,15.737 11.065,13.461 8.503,10.898 10.895,8.506 13.455,11.066 15.732,10.125 15.732,6.5 19.116,6.5     19.116,10.121 "/> 		<circle oryx:anchors="top left" id="_3CD62A82-DA92-45A5-B177-8FD56A6C8302frame23" style="opacity:1;fill:none;" stroke="#000000" cx="17.427" cy="17.426" r="3.714"/> 	</g> 	 	<g id="_3CD62A82-DA92-45A5-B177-8FD56A6C8302sendTask" display="none"> 		<path id="_3CD62A82-DA92-45A5-B177-8FD56A6C8302stframe24" oryx:anchors="left top" stroke="#FFFFFF" fill="black" stroke-width="1" d="M8,11 L8,21 L24,21 L24,11 L16,17z"/> 		<path id="_3CD62A82-DA92-45A5-B177-8FD56A6C8302stframe25" oryx:anchors="left top" stroke="#FFFFFF" fill="black" stroke-width="1" d="M7,10 L16,17 L25 10z"/> 	</g> 	 	<g id="_3CD62A82-DA92-45A5-B177-8FD56A6C8302receiveTask" display="none"> 		<path id="_3CD62A82-DA92-45A5-B177-8FD56A6C8302frame26" oryx:anchors="left top" stroke="#000000" fill="none" stroke-width="1" d="M8,11 L8,21 L24,21 L24,11z M8,11 L16,17 L24,11"/> 	</g> 	 	<g id="_3CD62A82-DA92-45A5-B177-8FD56A6C8302none" display="none"/>  	<g id="_3CD62A82-DA92-45A5-B177-8FD56A6C8302sequential" display="none">         <path oryx:anchors="bottom" fill="none" stroke="#000000" stroke-width="2" d="M46,76h10M46,72h10 M46,68h10" id="_3CD62A82-DA92-45A5-B177-8FD56A6C8302__3CD62A82-DA92-45A5-B177-8FD56A6C8302_20"/>     </g>   </g></g><g class="children" style="overflow:hidden"/><g class="edge"/></g><g class="controls"><g class="dockers"/><g class="magnets" transform="translate(195, 140)"><g pointer-events="all" display="none" transform="translate(-7, 12)"><circle cx="8" cy="8" r="4" stroke="none" fill="red" fill-opacity="0.3"/></g><g pointer-events="all" display="none" transform="translate(-7, 32)"><circle cx="8" cy="8" r="4" stroke="none" fill="red" fill-opacity="0.3"/></g><g pointer-events="all" display="none" transform="translate(-7, 52)"><circle cx="8" cy="8" r="4" stroke="none" fill="red" fill-opacity="0.3"/></g><g pointer-events="all" display="none" transform="translate(17, 71)"><circle cx="8" cy="8" r="4" stroke="none" fill="red" fill-opacity="0.3"/></g><g pointer-events="all" display="none" transform="translate(42, 71)"><circle cx="8" cy="8" r="4" stroke="none" fill="red" fill-opacity="0.3"/></g><g pointer-events="all" display="none" transform="translate(67, 71)"><circle cx="8" cy="8" r="4" stroke="none" fill="red" fill-opacity="0.3"/></g><g pointer-events="all" display="none" transform="translate(91, 12)"><circle cx="8" cy="8" r="4" stroke="none" fill="red" fill-opacity="0.3"/></g><g pointer-events="all" display="none" transform="translate(91, 32)"><circle cx="8" cy="8" r="4" stroke="none" fill="red" fill-opacity="0.3"/></g><g pointer-events="all" display="none" transform="translate(91, 52)"><circle cx="8" cy="8" r="4" stroke="none" fill="red" fill-opacity="0.3"/></g><g pointer-events="all" display="none" transform="translate(17, -7)"><circle cx="8" cy="8" r="4" stroke="none" fill="red" fill-opacity="0.3"/></g><g pointer-events="all" display="none" transform="translate(42, -7)"><circle cx="8" cy="8" r="4" stroke="none" fill="red" fill-opacity="0.3"/></g><g pointer-events="all" display="none" transform="translate(67, -7)"><circle cx="8" cy="8" r="4" stroke="none" fill="red" fill-opacity="0.3"/></g><g pointer-events="all" display="none" transform="translate(42, 32)"><circle cx="8" cy="8" r="4" stroke="none" fill="red" fill-opacity="0.3"/></g></g></g></g><g id="_4ADF627D-28E9-4855-B810-6587E11239C2" bpmn2nodeid="_CB1BE2D5-1ABA-4D17-8D72-8601878DE800"><g class="stencils" transform="translate(340, 140)"><g class="me"><g pointer-events="fill" oryx:minimumSize="50 40" id="_4ADF627D-28E9-4855-B810-6587E11239C2">   	<defs id="_4ADF627D-28E9-4855-B810-6587E11239C2__4ADF627D-28E9-4855-B810-6587E11239C2_17"> 		<radialGradient id="_4ADF627D-28E9-4855-B810-6587E11239C2background" cx="10%" cy="10%" r="100%" fx="10%" fy="10%"> 			<stop offset="0%" stop-color="#ffffff" stop-opacity="1" id="_4ADF627D-28E9-4855-B810-6587E11239C2__4ADF627D-28E9-4855-B810-6587E11239C2_18"/> 			<stop id="_4ADF627D-28E9-4855-B810-6587E11239C2fill_el" offset="100%" stop-color="#fafad2" stop-opacity="1"/> 		</radialGradient> 		<radialGradient id="_4ADF627D-28E9-4855-B810-6587E11239C2borderbackground" cx="10%" cy="10%" r="100%" fx="10%" fy="10%"> 			<stop offset="0%" stop-color="#ffffff" stop-opacity="1" id="_4ADF627D-28E9-4855-B810-6587E11239C2__4ADF627D-28E9-4855-B810-6587E11239C2_19"/> 			<stop id="_4ADF627D-28E9-4855-B810-6587E11239C2fill_border" offset="100%" stop-color="#000000" stop-opacity="1" stroke="#000000"/> 		</radialGradient> 	</defs> 	 	<rect id="_4ADF627D-28E9-4855-B810-6587E11239C2text_frame" oryx:anchors="bottom top right left" x="1" y="1" width="94" height="79" rx="10" ry="10" stroke="none" stroke-width="0" fill="none"/> 	<rect id="_4ADF627D-28E9-4855-B810-6587E11239C2bg_frame" oryx:resize="vertical horizontal" x="0" y="0" width="100" height="80" rx="10" ry="10" stroke="#000000" stroke-width="1" fill="url(#_4ADF627D-28E9-4855-B810-6587E11239C2background) #ffffcc"/> 		<text font-size="12" id="_4ADF627D-28E9-4855-B810-6587E11239C2text_name" x="50" y="40" oryx:align="middle center" oryx:fittoelem="text_frame" stroke="black" text-anchor="middle" stroke-width="0pt" letter-spacing="-0.01px" fill="#000000" transform="rotate(0 50 40)" visibility="inherit" oryx:fontSize="12"><tspan x="50" y="40" dy="5">getNameAge</tspan></text>     <g id="_4ADF627D-28E9-4855-B810-6587E11239C2manualTask" transform="scale(0.7,0.7) translate(8,8)" display="none">     	<path oryx:anchors="top left" id="_4ADF627D-28E9-4855-B810-6587E11239C2frame" style="opacity:1;fill:none;fill-opacity:1;stroke-width:1" d="M0.5,3.751l4.083-3.25c0,0,11.166,0.083,12.083,0.083s-2.417,2.917-1.5,2.917     s11.667,0,12.584,0c1.166,1.708-0.168,3.167-0.834,3.667s0.875,1.917-1,4.417c-0.75,0.25,0.75,1.875-1.333,3.333     c-1.167,0.583,0.583,1.542-1.25,2.833c-1.167,0-20.833,0.083-20.833,0.083l-2-1.333V3.751z" stroke="#000000"/> 		<path id="_4ADF627D-28E9-4855-B810-6587E11239C2frame2" oryx:anchors="top left" style="opacity:1;fill:none;stroke-width:2" d="M 13.5 7 L 27 7" stroke="#000000"/> 		<path id="_4ADF627D-28E9-4855-B810-6587E11239C2frame3" oryx:anchors="top left" style="opacity:1;fill:none;stroke-width:2" d="M 13.5 11 L 26 11" stroke="#000000"/> 		<path id="_4ADF627D-28E9-4855-B810-6587E11239C2frame4" oryx:anchors="top left" style="opacity:1;fill:none;stroke-width:1.5" d="M 14 14.5 L 25 14.5" stroke="#000000"/> 		<path id="_4ADF627D-28E9-4855-B810-6587E11239C2frame5" oryx:anchors="top left" style="opacity:1;fill:none;stroke-width:1.5" d="M 8.2 3.1 L 15 3.1" stroke="#000000"/> 	</g> 	 	<g id="_4ADF627D-28E9-4855-B810-6587E11239C2businessRuleTask" transform="scale(0.7,0.7) translate(8,8)" display="none"> 		<rect id="_4ADF627D-28E9-4855-B810-6587E11239C2frame6" oryx:anchors="top left" x="0" y="0" width="22" height="4" style="opacity:1;fill:#B3B1B3;fill-opacity:1;" stroke="#000000"/> 		<rect id="_4ADF627D-28E9-4855-B810-6587E11239C2frame7" oryx:anchors="top left" x="0" y="4" style="opacity:1;fill:none;" width="22" height="12" stroke="#000000"/> 		<path id="_4ADF627D-28E9-4855-B810-6587E11239C2frame8" oryx:anchors="top left" style="opacity:1;fill:none;" d="M 0 10 L 22 10" stroke="#000000"/> 		<path id="_4ADF627D-28E9-4855-B810-6587E11239C2frame9" oryx:anchors="top left" style="opacity:1; fill:none;" d="M 7 4 L 7 16" stroke="#000000"/> 	</g> 	 	<g id="_4ADF627D-28E9-4855-B810-6587E11239C2scriptTask" transform="scale(0.7,0.7) translate(8,8)" display="none"> 		<path oryx:anchors="top left" id="_4ADF627D-28E9-4855-B810-6587E11239C2frame10" style="opacity:1;fill:none;" stroke="#000000" d="M6.402,0.5h14.5c0,0-5.833,2.833-5.833,5.583s4.417,6,4.417,9.167    s-4.167,5.083-4.167,5.083H0.235c0,0,5-2.667,5-5s-4.583-6.75-4.583-9.25S6.402,0.5,6.402,0.5z"/> 		<path oryx:anchors="top left" id="_4ADF627D-28E9-4855-B810-6587E11239C2frame11" style="opacity:1;fill:none;stroke-width:1.5" d="M 3.5 4.5 L 13.5 4.5" stroke="#000000"/> 		<path oryx:anchors="top left" id="_4ADF627D-28E9-4855-B810-6587E11239C2frame12" style="opacity:1;fill:none;stroke-width:1.5" d="M 3.8 8.5 L 13.8 8.5" stroke="#000000"/> 		<path oryx:anchors="top left" id="_4ADF627D-28E9-4855-B810-6587E11239C2frame13" style="opacity:1;fill:none;stroke-width:1.5" d="M 6.3 12.5 L 16.3 12.5" stroke="#000000"/> 		<path oryx:anchors="top left" id="_4ADF627D-28E9-4855-B810-6587E11239C2frame14" style="opacity:1;fill:none;stroke-width:1.5" d="M 6.5 16.5 L 16.5 16.5" stroke="#000000"/> 	</g> 	 	<g id="_4ADF627D-28E9-4855-B810-6587E11239C2userTask" transform="scale(0.7,0.7) translate(8,8)" display="inherit"> 		<path id="_4ADF627D-28E9-4855-B810-6587E11239C2frame15" oryx:anchors="top left" style="opacity:1;fill:#F4F6F7" stroke="#000000" d="M0.585,24.167h24.083v-7.833c0,0-2.333-3.917-7.083-5.167h-9.25    c-4.417,1.333-7.833,5.75-7.833,5.75L0.585,24.167z"/> 		<path id="_4ADF627D-28E9-4855-B810-6587E11239C2frame16" oryx:anchors="top left" style="opacity:1;fill:none" d="M 6 20 L 6 24" stroke="#000000"/> 		<path id="_4ADF627D-28E9-4855-B810-6587E11239C2frame17" oryx:anchors="top left" style="opacity:1;fill:none" d="M 20 20 L 20 24" stroke="#000000"/> 		<circle id="_4ADF627D-28E9-4855-B810-6587E11239C2frame18" oryx:anchors="top left" fill="black" cx="13.002" cy="5.916" r="5.417" stroke="#000000"/> 		<path id="_4ADF627D-28E9-4855-B810-6587E11239C2frame19" oryx:anchors="top left" style="opacity:1;fill:#F0EFF0;" stroke="#000000" d="M8.043,7.083c0,0,2.814-2.426,5.376-1.807s4.624-0.693,4.624-0.693    c0.25,1.688,0.042,3.75-1.458,5.584c0,0,1.083,0.75,1.083,1.5s0.125,1.875-1,3s-5.5,1.25-6.75,0S8.668,12.834,8.668,12    s0.583-1.25,1.25-1.917C8.835,9.5,7.419,7.708,8.043,7.083z"/> 	</g> 	 	<g id="_4ADF627D-28E9-4855-B810-6587E11239C2serviceTask" transform="scale(0.7,0.7) translate(8,8)" display="none"> 		<polygon oryx:anchors="top left" id="_4ADF627D-28E9-4855-B810-6587E11239C2frame20" style="opacity:1;fill:#ffffff" stroke="#000000" points="15.392,5.064 17.954,2.502 20.347,4.895 17.786,7.455     18.729,9.732 22.353,9.732 22.353,13.115 18.731,13.115 17.788,15.392 20.351,17.955 17.958,20.347 15.397,17.786 13.12,18.729     13.12,22.353 9.737,22.353 9.737,18.731 7.46,17.788 4.897,20.35 2.506,17.958 5.066,15.397 4.124,13.12 0.5,13.12 0.5,9.737     4.121,9.737 5.065,7.461 2.503,4.898 4.895,2.506 7.455,5.066 9.732,4.125 9.732,0.5 13.116,0.5 13.116,4.121 "/> 		<circle oryx:anchors="top left" id="_4ADF627D-28E9-4855-B810-6587E11239C2frame21" style="opacity:1;fill:none" stroke="#000000" cx="11.427" cy="11.426" r="3.714"/> 		<polygon oryx:anchors="top left" id="_4ADF627D-28E9-4855-B810-6587E11239C2frame22" style="opacity:1;fill:#ffffff" stroke="#000000" points="21.392,11.064 23.954,8.502 26.347,10.895 23.786,13.455     24.729,15.732 28.353,15.732 28.353,19.115 24.731,19.115 23.788,21.392 26.351,23.955 23.958,26.347 21.397,23.786 19.12,24.729     19.12,28.353 15.737,28.353 15.737,24.731 13.46,23.788 10.897,26.35 8.506,23.958 11.066,21.397 10.124,19.12 6.5,19.12     6.5,15.737 10.121,15.737 11.065,13.461 8.503,10.898 10.895,8.506 13.455,11.066 15.732,10.125 15.732,6.5 19.116,6.5     19.116,10.121 "/> 		<circle oryx:anchors="top left" id="_4ADF627D-28E9-4855-B810-6587E11239C2frame23" style="opacity:1;fill:none;" stroke="#000000" cx="17.427" cy="17.426" r="3.714"/> 	</g> 	 	<g id="_4ADF627D-28E9-4855-B810-6587E11239C2sendTask" display="none"> 		<path id="_4ADF627D-28E9-4855-B810-6587E11239C2stframe24" oryx:anchors="left top" stroke="#FFFFFF" fill="black" stroke-width="1" d="M8,11 L8,21 L24,21 L24,11 L16,17z"/> 		<path id="_4ADF627D-28E9-4855-B810-6587E11239C2stframe25" oryx:anchors="left top" stroke="#FFFFFF" fill="black" stroke-width="1" d="M7,10 L16,17 L25 10z"/> 	</g> 	 	<g id="_4ADF627D-28E9-4855-B810-6587E11239C2receiveTask" display="none"> 		<path id="_4ADF627D-28E9-4855-B810-6587E11239C2frame26" oryx:anchors="left top" stroke="#000000" fill="none" stroke-width="1" d="M8,11 L8,21 L24,21 L24,11z M8,11 L16,17 L24,11"/> 	</g> 	 	<g id="_4ADF627D-28E9-4855-B810-6587E11239C2none" display="none"/>  	<g id="_4ADF627D-28E9-4855-B810-6587E11239C2sequential" display="none">         <path oryx:anchors="bottom" fill="none" stroke="#000000" stroke-width="2" d="M46,76h10M46,72h10 M46,68h10" id="_4ADF627D-28E9-4855-B810-6587E11239C2__4ADF627D-28E9-4855-B810-6587E11239C2_20"/>     </g>   </g></g><g class="children" style="overflow:hidden"/><g class="edge"/></g><g class="controls"><g class="dockers"/><g class="magnets" transform="translate(340, 140)"><g pointer-events="all" display="none" transform="translate(-7, 12)"><circle cx="8" cy="8" r="4" stroke="none" fill="red" fill-opacity="0.3"/></g><g pointer-events="all" display="none" transform="translate(-7, 32)"><circle cx="8" cy="8" r="4" stroke="none" fill="red" fill-opacity="0.3"/></g><g pointer-events="all" display="none" transform="translate(-7, 52)"><circle cx="8" cy="8" r="4" stroke="none" fill="red" fill-opacity="0.3"/></g><g pointer-events="all" display="none" transform="translate(17, 71)"><circle cx="8" cy="8" r="4" stroke="none" fill="red" fill-opacity="0.3"/></g><g pointer-events="all" display="none" transform="translate(42, 71)"><circle cx="8" cy="8" r="4" stroke="none" fill="red" fill-opacity="0.3"/></g><g pointer-events="all" display="none" transform="translate(67, 71)"><circle cx="8" cy="8" r="4" stroke="none" fill="red" fill-opacity="0.3"/></g><g pointer-events="all" display="none" transform="translate(91, 12)"><circle cx="8" cy="8" r="4" stroke="none" fill="red" fill-opacity="0.3"/></g><g pointer-events="all" display="none" transform="translate(91, 32)"><circle cx="8" cy="8" r="4" stroke="none" fill="red" fill-opacity="0.3"/></g><g pointer-events="all" display="none" transform="translate(91, 52)"><circle cx="8" cy="8" r="4" stroke="none" fill="red" fill-opacity="0.3"/></g><g pointer-events="all" display="none" transform="translate(17, -7)"><circle cx="8" cy="8" r="4" stroke="none" fill="red" fill-opacity="0.3"/></g><g pointer-events="all" display="none" transform="translate(42, -7)"><circle cx="8" cy="8" r="4" stroke="none" fill="red" fill-opacity="0.3"/></g><g pointer-events="all" display="none" transform="translate(67, -7)"><circle cx="8" cy="8" r="4" stroke="none" fill="red" fill-opacity="0.3"/></g><g pointer-events="all" display="none" transform="translate(42, 32)"><circle cx="8" cy="8" r="4" stroke="none" fill="red" fill-opacity="0.3"/></g></g></g></g><g id="_F058C032-8587-4669-8087-BF4AFB48E5EE" bpmn2nodeid="_1390D837-6CF4-42DC-9EB2-BAAD6E05D8D6"><g class="stencils" transform="translate(485, 140)"><g class="me"><g pointer-events="fill" oryx:minimumSize="50 40" id="_F058C032-8587-4669-8087-BF4AFB48E5EE">   	<defs id="_F058C032-8587-4669-8087-BF4AFB48E5EE__F058C032-8587-4669-8087-BF4AFB48E5EE_17"> 		<radialGradient id="_F058C032-8587-4669-8087-BF4AFB48E5EEbackground" cx="10%" cy="10%" r="100%" fx="10%" fy="10%"> 			<stop offset="0%" stop-color="#ffffff" stop-opacity="1" id="_F058C032-8587-4669-8087-BF4AFB48E5EE__F058C032-8587-4669-8087-BF4AFB48E5EE_18"/> 			<stop id="_F058C032-8587-4669-8087-BF4AFB48E5EEfill_el" offset="100%" stop-color="#fafad2" stop-opacity="1"/> 		</radialGradient> 		<radialGradient id="_F058C032-8587-4669-8087-BF4AFB48E5EEborderbackground" cx="10%" cy="10%" r="100%" fx="10%" fy="10%"> 			<stop offset="0%" stop-color="#ffffff" stop-opacity="1" id="_F058C032-8587-4669-8087-BF4AFB48E5EE__F058C032-8587-4669-8087-BF4AFB48E5EE_19"/> 			<stop id="_F058C032-8587-4669-8087-BF4AFB48E5EEfill_border" offset="100%" stop-color="#000000" stop-opacity="1" stroke="#000000"/> 		</radialGradient> 	</defs> 	 	<rect id="_F058C032-8587-4669-8087-BF4AFB48E5EEtext_frame" oryx:anchors="bottom top right left" x="1" y="1" width="94" height="79" rx="10" ry="10" stroke="none" stroke-width="0" fill="none"/> 	<rect id="_F058C032-8587-4669-8087-BF4AFB48E5EEbg_frame" oryx:resize="vertical horizontal" x="0" y="0" width="100" height="80" rx="10" ry="10" stroke="#000000" stroke-width="1" fill="url(#_F058C032-8587-4669-8087-BF4AFB48E5EEbackground) #ffffcc"/> 		<text font-size="12" id="_F058C032-8587-4669-8087-BF4AFB48E5EEtext_name" x="50" y="40" oryx:align="middle center" oryx:fittoelem="text_frame" stroke="black" text-anchor="middle" stroke-width="0pt" letter-spacing="-0.01px" fill="#000000" transform="rotate(0 50 40)" visibility="inherit" oryx:fontSize="12"><tspan x="50" y="40" dy="5">PrintOutput</tspan></text>     <g id="_F058C032-8587-4669-8087-BF4AFB48E5EEmanualTask" transform="scale(0.7,0.7) translate(8,8)" display="none">     	<path oryx:anchors="top left" id="_F058C032-8587-4669-8087-BF4AFB48E5EEframe" style="opacity:1;fill:none;fill-opacity:1;stroke-width:1" d="M0.5,3.751l4.083-3.25c0,0,11.166,0.083,12.083,0.083s-2.417,2.917-1.5,2.917     s11.667,0,12.584,0c1.166,1.708-0.168,3.167-0.834,3.667s0.875,1.917-1,4.417c-0.75,0.25,0.75,1.875-1.333,3.333     c-1.167,0.583,0.583,1.542-1.25,2.833c-1.167,0-20.833,0.083-20.833,0.083l-2-1.333V3.751z" stroke="#000000"/> 		<path id="_F058C032-8587-4669-8087-BF4AFB48E5EEframe2" oryx:anchors="top left" style="opacity:1;fill:none;stroke-width:2" d="M 13.5 7 L 27 7" stroke="#000000"/> 		<path id="_F058C032-8587-4669-8087-BF4AFB48E5EEframe3" oryx:anchors="top left" style="opacity:1;fill:none;stroke-width:2" d="M 13.5 11 L 26 11" stroke="#000000"/> 		<path id="_F058C032-8587-4669-8087-BF4AFB48E5EEframe4" oryx:anchors="top left" style="opacity:1;fill:none;stroke-width:1.5" d="M 14 14.5 L 25 14.5" stroke="#000000"/> 		<path id="_F058C032-8587-4669-8087-BF4AFB48E5EEframe5" oryx:anchors="top left" style="opacity:1;fill:none;stroke-width:1.5" d="M 8.2 3.1 L 15 3.1" stroke="#000000"/> 	</g> 	 	<g id="_F058C032-8587-4669-8087-BF4AFB48E5EEbusinessRuleTask" transform="scale(0.7,0.7) translate(8,8)" display="none"> 		<rect id="_F058C032-8587-4669-8087-BF4AFB48E5EEframe6" oryx:anchors="top left" x="0" y="0" width="22" height="4" style="opacity:1;fill:#B3B1B3;fill-opacity:1;" stroke="#000000"/> 		<rect id="_F058C032-8587-4669-8087-BF4AFB48E5EEframe7" oryx:anchors="top left" x="0" y="4" style="opacity:1;fill:none;" width="22" height="12" stroke="#000000"/> 		<path id="_F058C032-8587-4669-8087-BF4AFB48E5EEframe8" oryx:anchors="top left" style="opacity:1;fill:none;" d="M 0 10 L 22 10" stroke="#000000"/> 		<path id="_F058C032-8587-4669-8087-BF4AFB48E5EEframe9" oryx:anchors="top left" style="opacity:1; fill:none;" d="M 7 4 L 7 16" stroke="#000000"/> 	</g> 	 	<g id="_F058C032-8587-4669-8087-BF4AFB48E5EEscriptTask" transform="scale(0.7,0.7) translate(8,8)" display="inherit"> 		<path oryx:anchors="top left" id="_F058C032-8587-4669-8087-BF4AFB48E5EEframe10" style="opacity:1;fill:none;" stroke="#000000" d="M6.402,0.5h14.5c0,0-5.833,2.833-5.833,5.583s4.417,6,4.417,9.167    s-4.167,5.083-4.167,5.083H0.235c0,0,5-2.667,5-5s-4.583-6.75-4.583-9.25S6.402,0.5,6.402,0.5z"/> 		<path oryx:anchors="top left" id="_F058C032-8587-4669-8087-BF4AFB48E5EEframe11" style="opacity:1;fill:none;stroke-width:1.5" d="M 3.5 4.5 L 13.5 4.5" stroke="#000000"/> 		<path oryx:anchors="top left" id="_F058C032-8587-4669-8087-BF4AFB48E5EEframe12" style="opacity:1;fill:none;stroke-width:1.5" d="M 3.8 8.5 L 13.8 8.5" stroke="#000000"/> 		<path oryx:anchors="top left" id="_F058C032-8587-4669-8087-BF4AFB48E5EEframe13" style="opacity:1;fill:none;stroke-width:1.5" d="M 6.3 12.5 L 16.3 12.5" stroke="#000000"/> 		<path oryx:anchors="top left" id="_F058C032-8587-4669-8087-BF4AFB48E5EEframe14" style="opacity:1;fill:none;stroke-width:1.5" d="M 6.5 16.5 L 16.5 16.5" stroke="#000000"/> 	</g> 	 	<g id="_F058C032-8587-4669-8087-BF4AFB48E5EEuserTask" transform="scale(0.7,0.7) translate(8,8)" display="none"> 		<path id="_F058C032-8587-4669-8087-BF4AFB48E5EEframe15" oryx:anchors="top left" style="opacity:1;fill:#F4F6F7" stroke="#000000" d="M0.585,24.167h24.083v-7.833c0,0-2.333-3.917-7.083-5.167h-9.25    c-4.417,1.333-7.833,5.75-7.833,5.75L0.585,24.167z"/> 		<path id="_F058C032-8587-4669-8087-BF4AFB48E5EEframe16" oryx:anchors="top left" style="opacity:1;fill:none" d="M 6 20 L 6 24" stroke="#000000"/> 		<path id="_F058C032-8587-4669-8087-BF4AFB48E5EEframe17" oryx:anchors="top left" style="opacity:1;fill:none" d="M 20 20 L 20 24" stroke="#000000"/> 		<circle id="_F058C032-8587-4669-8087-BF4AFB48E5EEframe18" oryx:anchors="top left" fill="black" cx="13.002" cy="5.916" r="5.417" stroke="#000000"/> 		<path id="_F058C032-8587-4669-8087-BF4AFB48E5EEframe19" oryx:anchors="top left" style="opacity:1;fill:#F0EFF0;" stroke="#000000" d="M8.043,7.083c0,0,2.814-2.426,5.376-1.807s4.624-0.693,4.624-0.693    c0.25,1.688,0.042,3.75-1.458,5.584c0,0,1.083,0.75,1.083,1.5s0.125,1.875-1,3s-5.5,1.25-6.75,0S8.668,12.834,8.668,12    s0.583-1.25,1.25-1.917C8.835,9.5,7.419,7.708,8.043,7.083z"/> 	</g> 	 	<g id="_F058C032-8587-4669-8087-BF4AFB48E5EEserviceTask" transform="scale(0.7,0.7) translate(8,8)" display="none"> 		<polygon oryx:anchors="top left" id="_F058C032-8587-4669-8087-BF4AFB48E5EEframe20" style="opacity:1;fill:#ffffff" stroke="#000000" points="15.392,5.064 17.954,2.502 20.347,4.895 17.786,7.455     18.729,9.732 22.353,9.732 22.353,13.115 18.731,13.115 17.788,15.392 20.351,17.955 17.958,20.347 15.397,17.786 13.12,18.729     13.12,22.353 9.737,22.353 9.737,18.731 7.46,17.788 4.897,20.35 2.506,17.958 5.066,15.397 4.124,13.12 0.5,13.12 0.5,9.737     4.121,9.737 5.065,7.461 2.503,4.898 4.895,2.506 7.455,5.066 9.732,4.125 9.732,0.5 13.116,0.5 13.116,4.121 "/> 		<circle oryx:anchors="top left" id="_F058C032-8587-4669-8087-BF4AFB48E5EEframe21" style="opacity:1;fill:none" stroke="#000000" cx="11.427" cy="11.426" r="3.714"/> 		<polygon oryx:anchors="top left" id="_F058C032-8587-4669-8087-BF4AFB48E5EEframe22" style="opacity:1;fill:#ffffff" stroke="#000000" points="21.392,11.064 23.954,8.502 26.347,10.895 23.786,13.455     24.729,15.732 28.353,15.732 28.353,19.115 24.731,19.115 23.788,21.392 26.351,23.955 23.958,26.347 21.397,23.786 19.12,24.729     19.12,28.353 15.737,28.353 15.737,24.731 13.46,23.788 10.897,26.35 8.506,23.958 11.066,21.397 10.124,19.12 6.5,19.12     6.5,15.737 10.121,15.737 11.065,13.461 8.503,10.898 10.895,8.506 13.455,11.066 15.732,10.125 15.732,6.5 19.116,6.5     19.116,10.121 "/> 		<circle oryx:anchors="top left" id="_F058C032-8587-4669-8087-BF4AFB48E5EEframe23" style="opacity:1;fill:none;" stroke="#000000" cx="17.427" cy="17.426" r="3.714"/> 	</g> 	 	<g id="_F058C032-8587-4669-8087-BF4AFB48E5EEsendTask" display="none"> 		<path id="_F058C032-8587-4669-8087-BF4AFB48E5EEstframe24" oryx:anchors="left top" stroke="#FFFFFF" fill="black" stroke-width="1" d="M8,11 L8,21 L24,21 L24,11 L16,17z"/> 		<path id="_F058C032-8587-4669-8087-BF4AFB48E5EEstframe25" oryx:anchors="left top" stroke="#FFFFFF" fill="black" stroke-width="1" d="M7,10 L16,17 L25 10z"/> 	</g> 	 	<g id="_F058C032-8587-4669-8087-BF4AFB48E5EEreceiveTask" display="none"> 		<path id="_F058C032-8587-4669-8087-BF4AFB48E5EEframe26" oryx:anchors="left top" stroke="#000000" fill="none" stroke-width="1" d="M8,11 L8,21 L24,21 L24,11z M8,11 L16,17 L24,11"/> 	</g> 	 	<g id="_F058C032-8587-4669-8087-BF4AFB48E5EEnone" display="none"/>  	<g id="_F058C032-8587-4669-8087-BF4AFB48E5EEsequential" display="none">         <path oryx:anchors="bottom" fill="none" stroke="#000000" stroke-width="2" d="M46,76h10M46,72h10 M46,68h10" id="_F058C032-8587-4669-8087-BF4AFB48E5EE__F058C032-8587-4669-8087-BF4AFB48E5EE_20"/>     </g>   </g></g><g class="children" style="overflow:hidden"/><g class="edge"/></g><g class="controls"><g class="dockers"/><g class="magnets" transform="translate(485, 140)"><g pointer-events="all" display="none" transform="translate(-7, 12)"><circle cx="8" cy="8" r="4" stroke="none" fill="red" fill-opacity="0.3"/></g><g pointer-events="all" display="none" transform="translate(-7, 32)"><circle cx="8" cy="8" r="4" stroke="none" fill="red" fill-opacity="0.3"/></g><g pointer-events="all" display="none" transform="translate(-7, 52)"><circle cx="8" cy="8" r="4" stroke="none" fill="red" fill-opacity="0.3"/></g><g pointer-events="all" display="none" transform="translate(17, 71)"><circle cx="8" cy="8" r="4" stroke="none" fill="red" fill-opacity="0.3"/></g><g pointer-events="all" display="none" transform="translate(42, 71)"><circle cx="8" cy="8" r="4" stroke="none" fill="red" fill-opacity="0.3"/></g><g pointer-events="all" display="none" transform="translate(67, 71)"><circle cx="8" cy="8" r="4" stroke="none" fill="red" fill-opacity="0.3"/></g><g pointer-events="all" display="none" transform="translate(91, 12)"><circle cx="8" cy="8" r="4" stroke="none" fill="red" fill-opacity="0.3"/></g><g pointer-events="all" display="none" transform="translate(91, 32)"><circle cx="8" cy="8" r="4" stroke="none" fill="red" fill-opacity="0.3"/></g><g pointer-events="all" display="none" transform="translate(91, 52)"><circle cx="8" cy="8" r="4" stroke="none" fill="red" fill-opacity="0.3"/></g><g pointer-events="all" display="none" transform="translate(17, -7)"><circle cx="8" cy="8" r="4" stroke="none" fill="red" fill-opacity="0.3"/></g><g pointer-events="all" display="none" transform="translate(42, -7)"><circle cx="8" cy="8" r="4" stroke="none" fill="red" fill-opacity="0.3"/></g><g pointer-events="all" display="none" transform="translate(67, -7)"><circle cx="8" cy="8" r="4" stroke="none" fill="red" fill-opacity="0.3"/></g><g pointer-events="all" display="none" transform="translate(42, 32)"><circle cx="8" cy="8" r="4" stroke="none" fill="red" fill-opacity="0.3"/></g></g></g></g><g id="_F05DA082-0920-4115-8576-10A6868C78CD" bpmn2nodeid="_713CB0E4-13BA-428A-A6EF-5B3F3297F202"><g class="stencils" transform="translate(630, 166)"><g class="me"><g pointer-events="fill" id="_F05DA082-0920-4115-8576-10A6868C78CD">      <defs id="_F05DA082-0920-4115-8576-10A6868C78CD__F05DA082-0920-4115-8576-10A6868C78CD_5"> 		<radialGradient id="_F05DA082-0920-4115-8576-10A6868C78CDbackground" cx="10%" cy="10%" r="100%" fx="10%" fy="10%"> 			<stop offset="0%" stop-color="#ffffff" stop-opacity="1" id="_F05DA082-0920-4115-8576-10A6868C78CD__F05DA082-0920-4115-8576-10A6868C78CD_6"/> 			<stop id="_F05DA082-0920-4115-8576-10A6868C78CDfill_el" offset="100%" stop-color="#ff6347" stop-opacity="1"/> 		</radialGradient> 	</defs> 	     <circle id="_F05DA082-0920-4115-8576-10A6868C78CDbg_frame" cx="14" cy="14" r="14" stroke="#000000" fill="url(#_F05DA082-0920-4115-8576-10A6868C78CDbackground) white" stroke-width="3"/> 	<text font-size="11" id="_F05DA082-0920-4115-8576-10A6868C78CDtext_name" x="14" y="30" oryx:align="top center" stroke="black" stroke-width="0pt" letter-spacing="-0.01px" fill="#000000" text-anchor="middle" transform="rotate(0 14 30)" visibility="inherit" oryx:fontSize="11"/>   </g></g><g class="children" style="overflow:hidden"/><g class="edge"/></g><g class="controls"><g class="dockers"/><g class="magnets" transform="translate(630, 166)"><g pointer-events="all" display="none" transform="translate(6, 6)"><circle cx="8" cy="8" r="4" stroke="none" fill="red" fill-opacity="0.3"/></g></g></g></g></g><g class="edge"><g id="_C680F52C-9839-463C-B972-0E9B568BC158" bpmn2nodeid="_13909E55-9184-4ABB-B287-9FB3ABB044FF"><g class="stencils"><g class="me"><g pointer-events="painted" bpmn2nodeid="_13909E55-9184-4ABB-B287-9FB3ABB044FF"><path id="_C680F52C-9839-463C-B972-0E9B568BC158_1" d="M150.609375 180L194.15625 180 " stroke="#000000" fill="none" stroke-width="2" stroke-linecap="round" stroke-linejoin="round" marker-start="url(#_C680F52C-9839-463C-B972-0E9B568BC158start)" marker-end="url(#_C680F52C-9839-463C-B972-0E9B568BC158end)"/></g><text id="_C680F52C-9839-463C-B972-0E9B568BC158text_name" font-size="12" x="164.609375" y="166" oryx:edgePosition="startTop" stroke-width="0pt" letter-spacing="-0.01px" fill="#000000" text-anchor="start" transform="rotate(360 150.609375 180)" visibility="inherit" oryx:fontSize="12"/></g><g class="children" style="overflow:hidden"/><g class="edge"/></g><g class="controls"><g class="dockers"/><g class="magnets"/></g></g><g id="_21F74F7F-1AA2-4587-9DD6-732BA5CDC2F2" bpmn2nodeid="_B9055995-6933-4CEA-A1BA-FDB059521B7B"><g class="stencils"><g class="me"><g pointer-events="painted" bpmn2nodeid="_B9055995-6933-4CEA-A1BA-FDB059521B7B"><path id="_21F74F7F-1AA2-4587-9DD6-732BA5CDC2F2_1" d="M295.84375 180L339.15625 180 " stroke="#000000" fill="none" stroke-width="2" stroke-linecap="round" stroke-linejoin="round" marker-start="url(#_21F74F7F-1AA2-4587-9DD6-732BA5CDC2F2start)" marker-end="url(#_21F74F7F-1AA2-4587-9DD6-732BA5CDC2F2end)"/></g><text id="_21F74F7F-1AA2-4587-9DD6-732BA5CDC2F2text_name" font-size="12" x="309.84375" y="166" oryx:edgePosition="startTop" stroke-width="0pt" letter-spacing="-0.01px" fill="#000000" text-anchor="start" transform="rotate(360 295.84375 180)" visibility="inherit" oryx:fontSize="12"/></g><g class="children" style="overflow:hidden"/><g class="edge"/></g><g class="controls"><g class="dockers"/><g class="magnets"/></g></g><g id="_87043961-0D7A-4E48-A1C0-154EE92559E6" bpmn2nodeid="_1DE5F2B6-3651-47E6-AF6A-4D1F136413FA"><g class="stencils"><g class="me"><g pointer-events="painted" bpmn2nodeid="_1DE5F2B6-3651-47E6-AF6A-4D1F136413FA"><path id="_87043961-0D7A-4E48-A1C0-154EE92559E6_1" d="M440.84375 180L484.15625 180 " stroke="#000000" fill="none" stroke-width="2" stroke-linecap="round" stroke-linejoin="round" marker-start="url(#_87043961-0D7A-4E48-A1C0-154EE92559E6start)" marker-end="url(#_87043961-0D7A-4E48-A1C0-154EE92559E6end)"/></g><text id="_87043961-0D7A-4E48-A1C0-154EE92559E6text_name" font-size="12" x="454.84375" y="166" oryx:edgePosition="startTop" stroke-width="0pt" letter-spacing="-0.01px" fill="#000000" text-anchor="start" transform="rotate(360 440.84375 180)" visibility="inherit" oryx:fontSize="12"/></g><g class="children" style="overflow:hidden"/><g class="edge"/></g><g class="controls"><g class="dockers"/><g class="magnets"/></g></g><g id="_587A7137-D6D3-4ADD-B2BE-477B6A3983A3" bpmn2nodeid="_2450A59C-25EB-4891-BA8A-B465C89AD593"><g class="stencils"><g class="me"><g pointer-events="painted" bpmn2nodeid="_2450A59C-25EB-4891-BA8A-B465C89AD593"><path id="_587A7137-D6D3-4ADD-B2BE-477B6A3983A3_1" d="M585.390625 180L629.375 180 " stroke="#000000" fill="none" stroke-width="2" stroke-linecap="round" stroke-linejoin="round" marker-start="url(#_587A7137-D6D3-4ADD-B2BE-477B6A3983A3start)" marker-end="url(#_587A7137-D6D3-4ADD-B2BE-477B6A3983A3end)"/></g><text id="_587A7137-D6D3-4ADD-B2BE-477B6A3983A3text_name" font-size="12" x="599.390625" y="166" oryx:edgePosition="startTop" stroke-width="0pt" letter-spacing="-0.01px" fill="#000000" text-anchor="start" transform="rotate(360 585.390625 180)" visibility="inherit" oryx:fontSize="12"/></g><g class="children" style="overflow:hidden"/><g class="edge"/></g><g class="controls"><g class="dockers"/><g class="magnets"/></g></g></g><text id="_C828D41B-7014-46EB-ABDD-C12EF74A607E" style="stroke-width:1;fill:rgb(177,194,214);font-family:arial;font-weight:bold" font-size="12" onclick="ORYX.Plugins.CanvasTitle.openTextualAnalysis()" onmouseover="ORYX.Plugins.CanvasTitle.addToolTip('_C828D41B-7014-46EB-ABDD-C12EF74A607E')" transform="translate(10, 20)">getNextTask v.1.0 (NextTask.getNextTask)</text></g></g></svg>