<svg xmlns="http://www.w3.org/2000/svg" xmlns:oryx="http://oryx-editor.org" id="_068FA396-5F1E-4844-8D44-A254A36A2F21" width="728" height="265" xmlns:xlink="http://www.w3.org/1999/xlink" xmlns:svg="http://www.w3.org/2000/svg"><defs><marker id="_69A82401-4CB2-45D3-91B4-92584062AA98start" refX="1" refY="5" markerUnits="userSpaceOnUse" markerWidth="17" markerHeight="11" orient="auto" fill="#000000" stroke="#000000"> 	  		<path id="_69A82401-4CB2-45D3-91B4-92584062AA98conditional" d="M 0 5 L 8 0 L 16 5 L 8 10 L 0 5" fill="white" stroke="#000000" stroke-width="1" display="none"/> 			<path id="_69A82401-4CB2-45D3-91B4-92584062AA98default" d="M 5 0 L 11 10" fill="white" stroke="#000000" stroke-width="1" display="none"/> 	  	</marker><marker id="_69A82401-4CB2-45D3-91B4-92584062AA98end" refX="15" refY="6" markerUnits="userSpaceOnUse" markerWidth="15" markerHeight="12" orient="auto" fill="#000000" stroke="#000000"> 	  		<path id="_69A82401-4CB2-45D3-91B4-92584062AA98frame2" d="M 0 1 L 15 6 L 0 11z" fill="#000000" stroke="#000000" stroke-linejoin="round" stroke-width="2"/> 	  	</marker><marker id="_20C99D81-88C7-46CD-9663-6F823683066Estart" refX="1" refY="5" markerUnits="userSpaceOnUse" markerWidth="17" markerHeight="11" orient="auto" fill="#000000" stroke="#000000"> 	  		<path id="_20C99D81-88C7-46CD-9663-6F823683066Econditional" d="M 0 5 L 8 0 L 16 5 L 8 10 L 0 5" fill="white" stroke="#000000" stroke-width="1" display="none"/> 			<path id="_20C99D81-88C7-46CD-9663-6F823683066Edefault" d="M 5 0 L 11 10" fill="white" stroke="#000000" stroke-width="1" display="none"/> 	  	</marker><marker id="_20C99D81-88C7-46CD-9663-6F823683066Eend" refX="15" refY="6" markerUnits="userSpaceOnUse" markerWidth="15" markerHeight="12" orient="auto" fill="#000000" stroke="#000000"> 	  		<path id="_20C99D81-88C7-46CD-9663-6F823683066Eframe2" d="M 0 1 L 15 6 L 0 11z" fill="#000000" stroke="#000000" stroke-linejoin="round" stroke-width="2"/> 	  	</marker><marker id="_23A21193-B1ED-42C3-B1C6-AD221000D1BEstart" refX="1" refY="5" markerUnits="userSpaceOnUse" markerWidth="17" markerHeight="11" orient="auto" fill="#000000" stroke="#000000"> 	  		<path id="_23A21193-B1ED-42C3-B1C6-AD221000D1BEconditional" d="M 0 5 L 8 0 L 16 5 L 8 10 L 0 5" fill="white" stroke="#000000" stroke-width="1" display="none"/> 			<path id="_23A21193-B1ED-42C3-B1C6-AD221000D1BEdefault" d="M 5 0 L 11 10" fill="white" stroke="#000000" stroke-width="1" display="none"/> 	  	</marker><marker id="_23A21193-B1ED-42C3-B1C6-AD221000D1BEend" refX="15" refY="6" markerUnits="userSpaceOnUse" markerWidth="15" markerHeight="12" orient="auto" fill="#000000" stroke="#000000"> 	  		<path id="_23A21193-B1ED-42C3-B1C6-AD221000D1BEframe2" d="M 0 1 L 15 6 L 0 11z" fill="#000000" stroke="#000000" stroke-linejoin="round" stroke-width="2"/> 	  	</marker><marker id="_89575A3C-FE90-41B4-9507-9A01CD990C20start" refX="1" refY="5" markerUnits="userSpaceOnUse" markerWidth="17" markerHeight="11" orient="auto" fill="#000000" stroke="#000000"> 	  		<path id="_89575A3C-FE90-41B4-9507-9A01CD990C20conditional" d="M 0 5 L 8 0 L 16 5 L 8 10 L 0 5" fill="white" stroke="#000000" stroke-width="1" display="none"/> 			<path id="_89575A3C-FE90-41B4-9507-9A01CD990C20default" d="M 5 0 L 11 10" fill="white" stroke="#000000" stroke-width="1" display="none"/> 	  	</marker><marker id="_89575A3C-FE90-41B4-9507-9A01CD990C20end" refX="15" refY="6" markerUnits="userSpaceOnUse" markerWidth="15" markerHeight="12" orient="auto" fill="#000000" stroke="#000000"> 	  		<path id="_89575A3C-FE90-41B4-9507-9A01CD990C20frame2" d="M 0 1 L 15 6 L 0 11z" fill="#000000" stroke="#000000" stroke-linejoin="round" stroke-width="2"/> 	  	</marker><marker id="_29EAC20B-CCF5-45FA-9891-370FF3A20CFCstart" refX="1" refY="5" markerUnits="userSpaceOnUse" markerWidth="17" markerHeight="11" orient="auto" fill="#000000" stroke="#000000"> 	  		<path id="_29EAC20B-CCF5-45FA-9891-370FF3A20CFCconditional" d="M 0 5 L 8 0 L 16 5 L 8 10 L 0 5" fill="white" stroke="#000000" stroke-width="1" display="none"/> 			<path id="_29EAC20B-CCF5-45FA-9891-370FF3A20CFCdefault" d="M 5 0 L 11 10" fill="white" stroke="#000000" stroke-width="1" display="none"/> 	  	</marker><marker id="_29EAC20B-CCF5-45FA-9891-370FF3A20CFCend" refX="15" refY="6" markerUnits="userSpaceOnUse" markerWidth="15" markerHeight="12" orient="auto" fill="#000000" stroke="#000000"> 	  		<path id="_29EAC20B-CCF5-45FA-9891-370FF3A20CFCframe2" d="M 0 1 L 15 6 L 0 11z" fill="#000000" stroke="#000000" stroke-linejoin="round" stroke-width="2"/> 	  	</marker><marker id="_77AA5F58-FA1F-4611-8F45-5E87BB5BFD7Dstart" refX="1" refY="5" markerUnits="userSpaceOnUse" markerWidth="17" markerHeight="11" orient="auto" fill="#000000" stroke="#000000"> 	  		<path id="_77AA5F58-FA1F-4611-8F45-5E87BB5BFD7Dconditional" d="M 0 5 L 8 0 L 16 5 L 8 10 L 0 5" fill="white" stroke="#000000" stroke-width="1" display="none"/> 			<path id="_77AA5F58-FA1F-4611-8F45-5E87BB5BFD7Ddefault" d="M 5 0 L 11 10" fill="white" stroke="#000000" stroke-width="1" display="none"/> 	  	</marker><marker id="_77AA5F58-FA1F-4611-8F45-5E87BB5BFD7Dend" refX="15" refY="6" markerUnits="userSpaceOnUse" markerWidth="15" markerHeight="12" orient="auto" fill="#000000" stroke="#000000"> 	  		<path id="_77AA5F58-FA1F-4611-8F45-5E87BB5BFD7Dframe2" d="M 0 1 L 15 6 L 0 11z" fill="#000000" stroke="#000000" stroke-linejoin="round" stroke-width="2"/> 	  	</marker></defs><g stroke="none" font-family="Verdana, sans-serif" font-size-adjust="none" font-style="normal" font-variant="normal" font-weight="normal" line-heigth="normal" font-size="12"><g class="stencils" transform="translate(15, 16)"><g class="me"/><g class="children"><g id="_DC6D4B1A-0877-4013-BE09-B118EF6173CD" bpmn2nodeid="processStartEvent"><g class="stencils" transform="translate(120, 165)"><g class="me"><g pointer-events="fill" id="_DC6D4B1A-0877-4013-BE09-B118EF6173CD">        <defs id="_DC6D4B1A-0877-4013-BE09-B118EF6173CD__DC6D4B1A-0877-4013-BE09-B118EF6173CD_5"> 		<radialGradient id="_DC6D4B1A-0877-4013-BE09-B118EF6173CDbackground" cx="10%" cy="10%" r="100%" fx="10%" fy="10%"> 			<stop offset="0%" stop-color="#ffffff" stop-opacity="1" id="_DC6D4B1A-0877-4013-BE09-B118EF6173CD__DC6D4B1A-0877-4013-BE09-B118EF6173CD_6"/> 			<stop id="_DC6D4B1A-0877-4013-BE09-B118EF6173CDfill_el" offset="100%" stop-color="#9acd32" stop-opacity="1"/> 		</radialGradient> 	</defs> 	     <circle id="_DC6D4B1A-0877-4013-BE09-B118EF6173CDbg_frame" cx="15" cy="15" r="15" stroke="#000000" fill="url(#_DC6D4B1A-0877-4013-BE09-B118EF6173CDbackground) white" stroke-width="1" style="stroke-dasharray: 5.5, 3"/>      <circle id="_DC6D4B1A-0877-4013-BE09-B118EF6173CDframe" cx="15" cy="15" r="15" stroke="#000000" fill="none" stroke-width="1" display="inherit"/>  	<text font-size="11" id="_DC6D4B1A-0877-4013-BE09-B118EF6173CDtext_name" x="15" y="32" oryx:align="top center" stroke="black" stroke-width="0pt" letter-spacing="-0.01px" fill="#000000" text-anchor="middle" transform="rotate(0 15 32)" visibility="inherit" oryx:fontSize="11"/>   </g></g><g class="children" style="overflow:hidden"/><g class="edge"/></g><g class="controls"><g class="dockers"/><g class="magnets" transform="translate(120, 165)"><g pointer-events="all" display="none" transform="translate(7, 7)"><circle cx="8" cy="8" r="4" stroke="none" fill="red" fill-opacity="0.3"/></g></g></g></g><g id="_A2E57CC5-0F21-44FF-A8B2-78932FA64EDB" bpmn2nodeid="_D069F23A-406F-41F7-9DFB-B97BCCF9F299"><g class="stencils" transform="translate(195, 140)"><g class="me"><g pointer-events="fill" oryx:minimumSize="50 40" id="_A2E57CC5-0F21-44FF-A8B2-78932FA64EDB">   	<defs id="_A2E57CC5-0F21-44FF-A8B2-78932FA64EDB__A2E57CC5-0F21-44FF-A8B2-78932FA64EDB_17"> 		<radialGradient id="_A2E57CC5-0F21-44FF-A8B2-78932FA64EDBbackground" cx="10%" cy="10%" r="100%" fx="10%" fy="10%"> 			<stop offset="0%" stop-color="#ffffff" stop-opacity="1" id="_A2E57CC5-0F21-44FF-A8B2-78932FA64EDB__A2E57CC5-0F21-44FF-A8B2-78932FA64EDB_18"/> 			<stop id="_A2E57CC5-0F21-44FF-A8B2-78932FA64EDBfill_el" offset="100%" stop-color="#fafad2" stop-opacity="1"/> 		</radialGradient> 		<radialGradient id="_A2E57CC5-0F21-44FF-A8B2-78932FA64EDBborderbackground" cx="10%" cy="10%" r="100%" fx="10%" fy="10%"> 			<stop offset="0%" stop-color="#ffffff" stop-opacity="1" id="_A2E57CC5-0F21-44FF-A8B2-78932FA64EDB__A2E57CC5-0F21-44FF-A8B2-78932FA64EDB_19"/> 			<stop id="_A2E57CC5-0F21-44FF-A8B2-78932FA64EDBfill_border" offset="100%" stop-color="#000000" stop-opacity="1" stroke="#000000"/> 		</radialGradient> 	</defs> 	 	<rect id="_A2E57CC5-0F21-44FF-A8B2-78932FA64EDBtext_frame" oryx:anchors="bottom top right left" x="1" y="1" width="94" height="79" rx="10" ry="10" stroke="none" stroke-width="0" fill="none"/> 	<rect id="_A2E57CC5-0F21-44FF-A8B2-78932FA64EDBbg_frame" oryx:resize="vertical horizontal" x="0" y="0" width="100" height="80" rx="10" ry="10" stroke="#000000" stroke-width="1" fill="url(#_A2E57CC5-0F21-44FF-A8B2-78932FA64EDBbackground) #ffffcc"/> 		<text font-size="12" id="_A2E57CC5-0F21-44FF-A8B2-78932FA64EDBtext_name" x="50" y="40" oryx:align="middle center" oryx:fittoelem="text_frame" stroke="black" text-anchor="middle" stroke-width="0pt" letter-spacing="-0.01px" fill="#000000" transform="rotate(0 50 40)" visibility="inherit" oryx:fontSize="12"><tspan x="50" y="40" dy="5" id="ext-gen1019">Init</tspan></text>     <g id="_A2E57CC5-0F21-44FF-A8B2-78932FA64EDBmanualTask" transform="scale(0.7,0.7) translate(8,8)" display="none">     	<path oryx:anchors="top left" id="_A2E57CC5-0F21-44FF-A8B2-78932FA64EDBframe" style="opacity:1;fill:none;fill-opacity:1;stroke-width:1" d="M0.5,3.751l4.083-3.25c0,0,11.166,0.083,12.083,0.083s-2.417,2.917-1.5,2.917     s11.667,0,12.584,0c1.166,1.708-0.168,3.167-0.834,3.667s0.875,1.917-1,4.417c-0.75,0.25,0.75,1.875-1.333,3.333     c-1.167,0.583,0.583,1.542-1.25,2.833c-1.167,0-20.833,0.083-20.833,0.083l-2-1.333V3.751z" stroke="#000000"/> 		<path id="_A2E57CC5-0F21-44FF-A8B2-78932FA64EDBframe2" oryx:anchors="top left" style="opacity:1;fill:none;stroke-width:2" d="M 13.5 7 L 27 7" stroke="#000000"/> 		<path id="_A2E57CC5-0F21-44FF-A8B2-78932FA64EDBframe3" oryx:anchors="top left" style="opacity:1;fill:none;stroke-width:2" d="M 13.5 11 L 26 11" stroke="#000000"/> 		<path id="_A2E57CC5-0F21-44FF-A8B2-78932FA64EDBframe4" oryx:anchors="top left" style="opacity:1;fill:none;stroke-width:1.5" d="M 14 14.5 L 25 14.5" stroke="#000000"/> 		<path id="_A2E57CC5-0F21-44FF-A8B2-78932FA64EDBframe5" oryx:anchors="top left" style="opacity:1;fill:none;stroke-width:1.5" d="M 8.2 3.1 L 15 3.1" stroke="#000000"/> 	</g> 	 	<g id="_A2E57CC5-0F21-44FF-A8B2-78932FA64EDBbusinessRuleTask" transform="scale(0.7,0.7) translate(8,8)" display="none"> 		<rect id="_A2E57CC5-0F21-44FF-A8B2-78932FA64EDBframe6" oryx:anchors="top left" x="0" y="0" width="22" height="4" style="opacity:1;fill:#B3B1B3;fill-opacity:1;" stroke="#000000"/> 		<rect id="_A2E57CC5-0F21-44FF-A8B2-78932FA64EDBframe7" oryx:anchors="top left" x="0" y="4" style="opacity:1;fill:none;" width="22" height="12" stroke="#000000"/> 		<path id="_A2E57CC5-0F21-44FF-A8B2-78932FA64EDBframe8" oryx:anchors="top left" style="opacity:1;fill:none;" d="M 0 10 L 22 10" stroke="#000000"/> 		<path id="_A2E57CC5-0F21-44FF-A8B2-78932FA64EDBframe9" oryx:anchors="top left" style="opacity:1; fill:none;" d="M 7 4 L 7 16" stroke="#000000"/> 	</g> 	 	<g id="_A2E57CC5-0F21-44FF-A8B2-78932FA64EDBscriptTask" transform="scale(0.7,0.7) translate(8,8)" display="inherit"> 		<path oryx:anchors="top left" id="_A2E57CC5-0F21-44FF-A8B2-78932FA64EDBframe10" style="opacity:1;fill:none;" stroke="#000000" d="M6.402,0.5h14.5c0,0-5.833,2.833-5.833,5.583s4.417,6,4.417,9.167    s-4.167,5.083-4.167,5.083H0.235c0,0,5-2.667,5-5s-4.583-6.75-4.583-9.25S6.402,0.5,6.402,0.5z"/> 		<path oryx:anchors="top left" id="_A2E57CC5-0F21-44FF-A8B2-78932FA64EDBframe11" style="opacity:1;fill:none;stroke-width:1.5" d="M 3.5 4.5 L 13.5 4.5" stroke="#000000"/> 		<path oryx:anchors="top left" id="_A2E57CC5-0F21-44FF-A8B2-78932FA64EDBframe12" style="opacity:1;fill:none;stroke-width:1.5" d="M 3.8 8.5 L 13.8 8.5" stroke="#000000"/> 		<path oryx:anchors="top left" id="_A2E57CC5-0F21-44FF-A8B2-78932FA64EDBframe13" style="opacity:1;fill:none;stroke-width:1.5" d="M 6.3 12.5 L 16.3 12.5" stroke="#000000"/> 		<path oryx:anchors="top left" id="_A2E57CC5-0F21-44FF-A8B2-78932FA64EDBframe14" style="opacity:1;fill:none;stroke-width:1.5" d="M 6.5 16.5 L 16.5 16.5" stroke="#000000"/> 	</g> 	 	<g id="_A2E57CC5-0F21-44FF-A8B2-78932FA64EDBuserTask" transform="scale(0.7,0.7) translate(8,8)" display="none"> 		<path id="_A2E57CC5-0F21-44FF-A8B2-78932FA64EDBframe15" oryx:anchors="top left" style="opacity:1;fill:#F4F6F7" stroke="#000000" d="M0.585,24.167h24.083v-7.833c0,0-2.333-3.917-7.083-5.167h-9.25    c-4.417,1.333-7.833,5.75-7.833,5.75L0.585,24.167z"/> 		<path id="_A2E57CC5-0F21-44FF-A8B2-78932FA64EDBframe16" oryx:anchors="top left" style="opacity:1;fill:none" d="M 6 20 L 6 24" stroke="#000000"/> 		<path id="_A2E57CC5-0F21-44FF-A8B2-78932FA64EDBframe17" oryx:anchors="top left" style="opacity:1;fill:none" d="M 20 20 L 20 24" stroke="#000000"/> 		<circle id="_A2E57CC5-0F21-44FF-A8B2-78932FA64EDBframe18" oryx:anchors="top left" fill="black" cx="13.002" cy="5.916" r="5.417" stroke="#000000"/> 		<path id="_A2E57CC5-0F21-44FF-A8B2-78932FA64EDBframe19" oryx:anchors="top left" style="opacity:1;fill:#F0EFF0;" stroke="#000000" d="M8.043,7.083c0,0,2.814-2.426,5.376-1.807s4.624-0.693,4.624-0.693    c0.25,1.688,0.042,3.75-1.458,5.584c0,0,1.083,0.75,1.083,1.5s0.125,1.875-1,3s-5.5,1.25-6.75,0S8.668,12.834,8.668,12    s0.583-1.25,1.25-1.917C8.835,9.5,7.419,7.708,8.043,7.083z"/> 	</g> 	 	<g id="_A2E57CC5-0F21-44FF-A8B2-78932FA64EDBserviceTask" transform="scale(0.7,0.7) translate(8,8)" display="none"> 		<polygon oryx:anchors="top left" id="_A2E57CC5-0F21-44FF-A8B2-78932FA64EDBframe20" style="opacity:1;fill:#ffffff" stroke="#000000" points="15.392,5.064 17.954,2.502 20.347,4.895 17.786,7.455     18.729,9.732 22.353,9.732 22.353,13.115 18.731,13.115 17.788,15.392 20.351,17.955 17.958,20.347 15.397,17.786 13.12,18.729     13.12,22.353 9.737,22.353 9.737,18.731 7.46,17.788 4.897,20.35 2.506,17.958 5.066,15.397 4.124,13.12 0.5,13.12 0.5,9.737     4.121,9.737 5.065,7.461 2.503,4.898 4.895,2.506 7.455,5.066 9.732,4.125 9.732,0.5 13.116,0.5 13.116,4.121 "/> 		<circle oryx:anchors="top left" id="_A2E57CC5-0F21-44FF-A8B2-78932FA64EDBframe21" style="opacity:1;fill:none" stroke="#000000" cx="11.427" cy="11.426" r="3.714"/> 		<polygon oryx:anchors="top left" id="_A2E57CC5-0F21-44FF-A8B2-78932FA64EDBframe22" style="opacity:1;fill:#ffffff" stroke="#000000" points="21.392,11.064 23.954,8.502 26.347,10.895 23.786,13.455     24.729,15.732 28.353,15.732 28.353,19.115 24.731,19.115 23.788,21.392 26.351,23.955 23.958,26.347 21.397,23.786 19.12,24.729     19.12,28.353 15.737,28.353 15.737,24.731 13.46,23.788 10.897,26.35 8.506,23.958 11.066,21.397 10.124,19.12 6.5,19.12     6.5,15.737 10.121,15.737 11.065,13.461 8.503,10.898 10.895,8.506 13.455,11.066 15.732,10.125 15.732,6.5 19.116,6.5     19.116,10.121 "/> 		<circle oryx:anchors="top left" id="_A2E57CC5-0F21-44FF-A8B2-78932FA64EDBframe23" style="opacity:1;fill:none;" stroke="#000000" cx="17.427" cy="17.426" r="3.714"/> 	</g> 	 	<g id="_A2E57CC5-0F21-44FF-A8B2-78932FA64EDBsendTask" display="none"> 		<path id="_A2E57CC5-0F21-44FF-A8B2-78932FA64EDBstframe24" oryx:anchors="left top" stroke="#FFFFFF" fill="black" stroke-width="1" d="M8,11 L8,21 L24,21 L24,11 L16,17z"/> 		<path id="_A2E57CC5-0F21-44FF-A8B2-78932FA64EDBstframe25" oryx:anchors="left top" stroke="#FFFFFF" fill="black" stroke-width="1" d="M7,10 L16,17 L25 10z"/> 	</g> 	 	<g id="_A2E57CC5-0F21-44FF-A8B2-78932FA64EDBreceiveTask" display="none"> 		<path id="_A2E57CC5-0F21-44FF-A8B2-78932FA64EDBframe26" oryx:anchors="left top" stroke="#000000" fill="none" stroke-width="1" d="M8,11 L8,21 L24,21 L24,11z M8,11 L16,17 L24,11"/> 	</g> 	 	<g id="_A2E57CC5-0F21-44FF-A8B2-78932FA64EDBnone" display="none"/>  	<g id="_A2E57CC5-0F21-44FF-A8B2-78932FA64EDBsequential" display="none">         <path oryx:anchors="bottom" fill="none" stroke="#000000" stroke-width="2" d="M46,76h10M46,72h10 M46,68h10" id="_A2E57CC5-0F21-44FF-A8B2-78932FA64EDB__A2E57CC5-0F21-44FF-A8B2-78932FA64EDB_20"/>     </g>   </g></g><g class="children" style="overflow:hidden"/><g class="edge"/></g><g class="controls"><g class="dockers"/><g class="magnets" transform="translate(195, 140)"><g pointer-events="all" display="none" transform="translate(-7, 12)"><circle cx="8" cy="8" r="4" stroke="none" fill="red" fill-opacity="0.3"/></g><g pointer-events="all" display="none" transform="translate(-7, 32)"><circle cx="8" cy="8" r="4" stroke="none" fill="red" fill-opacity="0.3"/></g><g pointer-events="all" display="none" transform="translate(-7, 52)"><circle cx="8" cy="8" r="4" stroke="none" fill="red" fill-opacity="0.3"/></g><g pointer-events="all" display="none" transform="translate(17, 71)"><circle cx="8" cy="8" r="4" stroke="none" fill="red" fill-opacity="0.3"/></g><g pointer-events="all" display="none" transform="translate(42, 71)"><circle cx="8" cy="8" r="4" stroke="none" fill="red" fill-opacity="0.3"/></g><g pointer-events="all" display="none" transform="translate(67, 71)"><circle cx="8" cy="8" r="4" stroke="none" fill="red" fill-opacity="0.3"/></g><g pointer-events="all" display="none" transform="translate(91, 12)"><circle cx="8" cy="8" r="4" stroke="none" fill="red" fill-opacity="0.3"/></g><g pointer-events="all" display="none" transform="translate(91, 32)"><circle cx="8" cy="8" r="4" stroke="none" fill="red" fill-opacity="0.3"/></g><g pointer-events="all" display="none" transform="translate(91, 52)"><circle cx="8" cy="8" r="4" stroke="none" fill="red" fill-opacity="0.3"/></g><g pointer-events="all" display="none" transform="translate(17, -7)"><circle cx="8" cy="8" r="4" stroke="none" fill="red" fill-opacity="0.3"/></g><g pointer-events="all" display="none" transform="translate(42, -7)"><circle cx="8" cy="8" r="4" stroke="none" fill="red" fill-opacity="0.3"/></g><g pointer-events="all" display="none" transform="translate(67, -7)"><circle cx="8" cy="8" r="4" stroke="none" fill="red" fill-opacity="0.3"/></g><g pointer-events="all" display="none" transform="translate(42, 32)"><circle cx="8" cy="8" r="4" stroke="none" fill="red" fill-opacity="0.3"/></g></g></g></g><g id="_DA221021-B840-4580-ADBC-4EC1AE43697C" bpmn2nodeid="_3081A089-AE4C-4767-8319-C9F9D62D9A54"><g class="stencils" transform="translate(420, 140)"><g class="me"><g pointer-events="fill" oryx:minimumSize="80 60" id="_DA221021-B840-4580-ADBC-4EC1AE43697C">   	<defs id="_DA221021-B840-4580-ADBC-4EC1AE43697C__DA221021-B840-4580-ADBC-4EC1AE43697C_17"> 		<radialGradient id="_DA221021-B840-4580-ADBC-4EC1AE43697Cbackground" cx="10%" cy="10%" r="100%" fx="10%" fy="10%"> 			<stop offset="0%" stop-color="#ffffff" stop-opacity="1" id="_DA221021-B840-4580-ADBC-4EC1AE43697C__DA221021-B840-4580-ADBC-4EC1AE43697C_18"/> 			<stop id="_DA221021-B840-4580-ADBC-4EC1AE43697Cfill_el" offset="100%" stop-color="#fafad2" stop-opacity="1"/> 		</radialGradient> 	</defs> 	<rect id="_DA221021-B840-4580-ADBC-4EC1AE43697Ctext_frame" oryx:anchors="bottom top right left" x="1" y="1" width="94" height="79" rx="10" ry="10" stroke="none" stroke-width="0" fill="none"/> 	<rect id="_DA221021-B840-4580-ADBC-4EC1AE43697Cbg_frame" oryx:anchors="bottom top right left" x="0" y="0" width="100" height="80" rx="10" ry="10" stroke="#000000" stroke-width="1" fill="url(#_DA221021-B840-4580-ADBC-4EC1AE43697Cbackground) #ffffcc"/> 	<rect id="_DA221021-B840-4580-ADBC-4EC1AE43697Cframe" oryx:resize="vertical horizontal" oryx:anchors="bottom top right left" x="0" y="0" width="100" height="80" rx="10" ry="10" stroke="#000000" stroke-width="4" fill="none"/> 	<rect id="_DA221021-B840-4580-ADBC-4EC1AE43697Cframe2" oryx:anchors="top bottom left right" oryx:resize="vertical horizontal" x="2.5" y="2.5" width="95" height="75" rx="8" ry="8" stroke="#000000" stroke-width="1" fill="none"/>     	<text font-size="12" id="_DA221021-B840-4580-ADBC-4EC1AE43697Ctext_name" x="50" y="40" oryx:align="middle center" oryx:fittoelem="text_frame" stroke="black" stroke-width="0pt" letter-spacing="-0.01px" fill="#000000" text-anchor="middle" transform="rotate(0 50 40)" visibility="inherit" oryx:fontSize="12"><tspan x="50" y="40" dy="-1" id="ext-gen1017">Call Sub </tspan><tspan x="50" y="40" dy="11" id="ext-gen1014">Process</tspan></text>          <a id="_DA221021-B840-4580-ADBC-4EC1AE43697Cpimg" onclick="parent.designeropenintab(&quot;SubProcess.bpmn2&quot;,&quot;default://master@MRR-myrepo/SignalEventPOC/src/main/resources/com/citiustech/mrr/signaleventpoc/SubProcess.bpmn2&quot;);" xlink:href="">	 	<g id="_DA221021-B840-4580-ADBC-4EC1AE43697Cb" oryx:anchors="bottom"> 		<rect id="_DA221021-B840-4580-ADBC-4EC1AE43697Cframe3" oryx:anchors="bottom" x="44" y="66" width="14" height="14" fill="none" stroke="#000000" stroke-width="1"/> 		<path id="_DA221021-B840-4580-ADBC-4EC1AE43697Cframe4" oryx:anchors="bottom" fill="none" stroke="#000000" d="M51 68 v10 M 46 73 h10" stroke-width="1"/> 	</g> 	</a> 	<g id="_DA221021-B840-4580-ADBC-4EC1AE43697Cnone"/> 	undefined 	  	undefined 	undefined 	 	 	undefined 	undefined   </g></g><g class="children" style="overflow:hidden"/><g class="edge"/></g><g class="controls"><g class="dockers"/><g class="magnets" transform="translate(420, 140)"><g pointer-events="all" display="none" transform="translate(-7, 12)"><circle cx="8" cy="8" r="4" stroke="none" fill="red" fill-opacity="0.3"/></g><g pointer-events="all" display="none" transform="translate(-7, 32)"><circle cx="8" cy="8" r="4" stroke="none" fill="red" fill-opacity="0.3"/></g><g pointer-events="all" display="none" transform="translate(-7, 52)"><circle cx="8" cy="8" r="4" stroke="none" fill="red" fill-opacity="0.3"/></g><g pointer-events="all" display="none" transform="translate(17, 71)"><circle cx="8" cy="8" r="4" stroke="none" fill="red" fill-opacity="0.3"/></g><g pointer-events="all" display="none" transform="translate(42, 71)"><circle cx="8" cy="8" r="4" stroke="none" fill="red" fill-opacity="0.3"/></g><g pointer-events="all" display="none" transform="translate(67, 71)"><circle cx="8" cy="8" r="4" stroke="none" fill="red" fill-opacity="0.3"/></g><g pointer-events="all" display="none" transform="translate(91, 12)"><circle cx="8" cy="8" r="4" stroke="none" fill="red" fill-opacity="0.3"/></g><g pointer-events="all" display="none" transform="translate(91, 32)"><circle cx="8" cy="8" r="4" stroke="none" fill="red" fill-opacity="0.3"/></g><g pointer-events="all" display="none" transform="translate(91, 52)"><circle cx="8" cy="8" r="4" stroke="none" fill="red" fill-opacity="0.3"/></g><g pointer-events="all" display="none" transform="translate(17, -7)"><circle cx="8" cy="8" r="4" stroke="none" fill="red" fill-opacity="0.3"/></g><g pointer-events="all" display="none" transform="translate(42, -7)"><circle cx="8" cy="8" r="4" stroke="none" fill="red" fill-opacity="0.3"/></g><g pointer-events="all" display="none" transform="translate(67, -7)"><circle cx="8" cy="8" r="4" stroke="none" fill="red" fill-opacity="0.3"/></g><g pointer-events="all" display="none" transform="translate(42, 32)"><circle cx="8" cy="8" r="4" stroke="none" fill="red" fill-opacity="0.3"/></g></g></g></g><g id="_33E32009-BB91-4BE9-A313-536368059269" bpmn2nodeid="_AD21CE30-2342-4C16-B819-EF2A07FBD11E"><g class="stencils" transform="translate(340, 160)"><g class="me"><g id="_33E32009-BB91-4BE9-A313-536368059269">        <defs id="_33E32009-BB91-4BE9-A313-536368059269__33E32009-BB91-4BE9-A313-536368059269_4"> 		<radialGradient id="_33E32009-BB91-4BE9-A313-536368059269background" cx="10%" cy="10%" r="100%" fx="10%" fy="10%"> 			<stop offset="0%" stop-color="#ffffff" stop-opacity="1" id="_33E32009-BB91-4BE9-A313-536368059269__33E32009-BB91-4BE9-A313-536368059269_5"/> 			<stop id="_33E32009-BB91-4BE9-A313-536368059269fill_el" offset="100%" stop-color="#f0e68c" stop-opacity="1"/> 		</radialGradient> 		<radialGradient id="_33E32009-BB91-4BE9-A313-536368059269borderbackground" cx="10%" cy="10%" r="100%" fx="10%" fy="10%"> 			<stop offset="0%" stop-color="#ffffff" stop-opacity="1" id="_33E32009-BB91-4BE9-A313-536368059269__33E32009-BB91-4BE9-A313-536368059269_6"/> 			<stop id="_33E32009-BB91-4BE9-A313-536368059269fill_border" offset="100%" stop-color="#a67f00" stop-opacity="1" stroke="#a67f00"/> 		</radialGradient> 	</defs> 	     <path d=" M0 20.5  L20.5 0  L40 20.5  L20.5 40  z" id="_33E32009-BB91-4BE9-A313-536368059269bg_frame" fill="url(#_33E32009-BB91-4BE9-A313-536368059269background) white" style="stroke-width:1" stroke="#a67f00"/>     <g id="_33E32009-BB91-4BE9-A313-536368059269frame" stroke="#a67f00">       <path id="_33E32009-BB91-4BE9-A313-536368059269frame2" d=" M13.25 12.05  L17.25 12.05  L27.65 28.95  L23.75 28.95  z" style="stroke-width:1" stroke="#a67f00" fill="url(#_33E32009-BB91-4BE9-A313-536368059269borderbackground)"/>       <path id="_33E32009-BB91-4BE9-A313-536368059269frame3" d=" M13.25 28.95  L23.75 12.05  L27.65 12.05  L17.25 28.95  z" style="stroke-width:1" stroke="#a67f00" fill="url(#_33E32009-BB91-4BE9-A313-536368059269borderbackground)"/>     </g> 	 	<text id="_33E32009-BB91-4BE9-A313-536368059269text_name" x="30.5" y="30.5" oryx:align="left top" stroke-width="0pt" letter-spacing="-0.01px" fill="#000000" text-anchor="start" transform="rotate(0 30.5 30.5)" visibility="inherit" oryx:fontSize="12"/> 	   </g></g><g class="children" style="overflow:hidden"/><g class="edge"/></g><g class="controls"><g class="dockers"/><g class="magnets" transform="translate(340, 160)"><g pointer-events="all" display="none" transform="translate(12.5, 12.5)"><circle cx="8" cy="8" r="4" stroke="none" fill="red" fill-opacity="0.3"/></g></g></g></g><g id="_4EC0EAE7-EDBC-48A7-AB07-CAA5B7398699" bpmn2nodeid="_D79AE72F-F44C-4F60-97E4-8EA6991E7593"><g class="stencils" transform="translate(555, 160)"><g class="me"><g id="_4EC0EAE7-EDBC-48A7-AB07-CAA5B7398699">        <defs id="_4EC0EAE7-EDBC-48A7-AB07-CAA5B7398699__4EC0EAE7-EDBC-48A7-AB07-CAA5B7398699_4"> 		<radialGradient id="_4EC0EAE7-EDBC-48A7-AB07-CAA5B7398699background" cx="10%" cy="10%" r="100%" fx="10%" fy="10%"> 			<stop offset="0%" stop-color="#ffffff" stop-opacity="1" id="_4EC0EAE7-EDBC-48A7-AB07-CAA5B7398699__4EC0EAE7-EDBC-48A7-AB07-CAA5B7398699_5"/> 			<stop id="_4EC0EAE7-EDBC-48A7-AB07-CAA5B7398699fill_el" offset="100%" stop-color="#f0e68c" stop-opacity="1"/> 		</radialGradient> 		<radialGradient id="_4EC0EAE7-EDBC-48A7-AB07-CAA5B7398699borderbackground" cx="10%" cy="10%" r="100%" fx="10%" fy="10%"> 			<stop offset="0%" stop-color="#ffffff" stop-opacity="1" id="_4EC0EAE7-EDBC-48A7-AB07-CAA5B7398699__4EC0EAE7-EDBC-48A7-AB07-CAA5B7398699_6"/> 			<stop id="_4EC0EAE7-EDBC-48A7-AB07-CAA5B7398699fill_border" offset="100%" stop-color="#a67f00" stop-opacity="1" stroke="#a67f00"/> 		</radialGradient> 	</defs> 	     <path d=" M0 20.5  L20.5 0  L40 20.5  L20.5 40  z" id="_4EC0EAE7-EDBC-48A7-AB07-CAA5B7398699bg_frame" fill="url(#_4EC0EAE7-EDBC-48A7-AB07-CAA5B7398699background) white" style="stroke-width:1" stroke="#a67f00"/>     <g id="_4EC0EAE7-EDBC-48A7-AB07-CAA5B7398699frame" stroke="#a67f00">       <path id="_4EC0EAE7-EDBC-48A7-AB07-CAA5B7398699frame2" d=" M13.25 12.05  L17.25 12.05  L27.65 28.95  L23.75 28.95  z" style="stroke-width:1" stroke="#a67f00" fill="url(#_4EC0EAE7-EDBC-48A7-AB07-CAA5B7398699borderbackground)"/>       <path id="_4EC0EAE7-EDBC-48A7-AB07-CAA5B7398699frame3" d=" M13.25 28.95  L23.75 12.05  L27.65 12.05  L17.25 28.95  z" style="stroke-width:1" stroke="#a67f00" fill="url(#_4EC0EAE7-EDBC-48A7-AB07-CAA5B7398699borderbackground)"/>     </g> 	 	<text id="_4EC0EAE7-EDBC-48A7-AB07-CAA5B7398699text_name" x="30.5" y="30.5" oryx:align="left top" stroke-width="0pt" letter-spacing="-0.01px" fill="#000000" text-anchor="start" transform="rotate(0 30.5 30.5)" visibility="inherit" oryx:fontSize="12"/> 	   </g></g><g class="children" style="overflow:hidden"/><g class="edge"/></g><g class="controls"><g class="dockers"/><g class="magnets" transform="translate(555, 160)"><g pointer-events="all" display="none" transform="translate(12.5, 12.5)"><circle cx="8" cy="8" r="4" stroke="none" fill="red" fill-opacity="0.3"/></g></g></g></g><g id="_DB63BEC1-5B43-42D6-8A36-D5A8467A1B85" bpmn2nodeid="_7D50CBF2-0CFD-4679-911E-6FFAB259A683"><g class="stencils" transform="translate(660, 166)"><g class="me"><g pointer-events="fill" id="_DB63BEC1-5B43-42D6-8A36-D5A8467A1B85">      <defs id="_DB63BEC1-5B43-42D6-8A36-D5A8467A1B85__DB63BEC1-5B43-42D6-8A36-D5A8467A1B85_5"> 		<radialGradient id="_DB63BEC1-5B43-42D6-8A36-D5A8467A1B85background" cx="10%" cy="10%" r="100%" fx="10%" fy="10%"> 			<stop offset="0%" stop-color="#ffffff" stop-opacity="1" id="_DB63BEC1-5B43-42D6-8A36-D5A8467A1B85__DB63BEC1-5B43-42D6-8A36-D5A8467A1B85_6"/> 			<stop id="_DB63BEC1-5B43-42D6-8A36-D5A8467A1B85fill_el" offset="100%" stop-color="#ff6347" stop-opacity="1"/> 		</radialGradient> 	</defs> 	     <circle id="_DB63BEC1-5B43-42D6-8A36-D5A8467A1B85bg_frame" cx="14" cy="14" r="14" stroke="#000000" fill="url(#_DB63BEC1-5B43-42D6-8A36-D5A8467A1B85background) white" stroke-width="3"/> 	<text font-size="11" id="_DB63BEC1-5B43-42D6-8A36-D5A8467A1B85text_name" x="14" y="30" oryx:align="top center" stroke="black" stroke-width="0pt" letter-spacing="-0.01px" fill="#000000" text-anchor="middle" transform="rotate(0 14 30)" visibility="inherit" oryx:fontSize="11"/>   </g></g><g class="children" style="overflow:hidden"/><g class="edge"/></g><g class="controls"><g class="dockers"/><g class="magnets" transform="translate(660, 166)"><g pointer-events="all" display="none" transform="translate(6, 6)"><circle cx="8" cy="8" r="4" stroke="none" fill="red" fill-opacity="0.3"/></g></g></g></g></g><g class="edge"><g id="_69A82401-4CB2-45D3-91B4-92584062AA98" bpmn2nodeid="_2AC73029-081C-4C36-ACA1-67DC5304EA96"><g class="stencils"><g class="me"><g pointer-events="painted" bpmn2nodeid="_2AC73029-081C-4C36-ACA1-67DC5304EA96"><path id="_69A82401-4CB2-45D3-91B4-92584062AA98_1" d="M150.609375 180L194.15625 180 " stroke="#000000" fill="none" stroke-width="2" stroke-linecap="round" stroke-linejoin="round" marker-start="url(#_69A82401-4CB2-45D3-91B4-92584062AA98start)" marker-end="url(#_69A82401-4CB2-45D3-91B4-92584062AA98end)"/></g><text id="_69A82401-4CB2-45D3-91B4-92584062AA98text_name" font-size="12" x="164.609375" y="166" oryx:edgePosition="startTop" stroke-width="0pt" letter-spacing="-0.01px" fill="#000000" text-anchor="start" transform="rotate(360 150.609375 180)" visibility="inherit" oryx:fontSize="12"/></g><g class="children" style="overflow:hidden"/><g class="edge"/></g><g class="controls"><g class="dockers"/><g class="magnets"/></g></g><g id="_20C99D81-88C7-46CD-9663-6F823683066E" bpmn2nodeid="_F3A3DD23-8C85-4822-9807-18C40903170C"><g class="stencils"><g class="me"><g pointer-events="painted" bpmn2nodeid="_F3A3DD23-8C85-4822-9807-18C40903170C"><path id="_20C99D81-88C7-46CD-9663-6F823683066E_1" d="M295.62889687999245 180.2191727137662L339.64844687000755 180.4097335362338 " stroke="#000000" fill="none" stroke-width="2" stroke-linecap="round" stroke-linejoin="round" marker-start="url(#_20C99D81-88C7-46CD-9663-6F823683066Estart)" marker-end="url(#_20C99D81-88C7-46CD-9663-6F823683066Eend)"/></g><text id="_20C99D81-88C7-46CD-9663-6F823683066Etext_name" font-size="12" x="309.62889687999245" y="166.2191727137662" oryx:edgePosition="startTop" stroke-width="0pt" letter-spacing="-0.01px" fill="#000000" text-anchor="start" transform="rotate(0.24803212815652387 295.62889687999245 180.2191727137662)" visibility="inherit" oryx:fontSize="12"/></g><g class="children" style="overflow:hidden"/><g class="edge"/></g><g class="controls"><g class="dockers"/><g class="magnets"/></g></g><g id="_23A21193-B1ED-42C3-B1C6-AD221000D1BE" bpmn2nodeid="_C395A713-E430-4133-BBA6-784D16B9022C"><g class="stencils"><g class="me"><g pointer-events="painted" bpmn2nodeid="_C395A713-E430-4133-BBA6-784D16B9022C"><path id="_23A21193-B1ED-42C3-B1C6-AD221000D1BE_1" d="M380.32030207502595 180.40949633755696L419.38282292497405 180.23112866244304 " stroke="#000000" fill="none" stroke-width="2" stroke-linecap="round" stroke-linejoin="round" marker-start="url(#_23A21193-B1ED-42C3-B1C6-AD221000D1BEstart)" marker-end="url(#_23A21193-B1ED-42C3-B1C6-AD221000D1BEend)"/></g><text id="_23A21193-B1ED-42C3-B1C6-AD221000D1BEtext_name" font-size="12" x="394.32030207502595" y="166.40949633755696" oryx:edgePosition="startTop" stroke-width="0pt" letter-spacing="-0.01px" fill="#000000" text-anchor="start" transform="rotate(359.7383772543052 380.32030207502595 180.40949633755696)" visibility="inherit" oryx:fontSize="12"/></g><g class="children" style="overflow:hidden"/><g class="edge"/></g><g class="controls"><g class="dockers"/><g class="magnets"/></g></g><g id="_89575A3C-FE90-41B4-9507-9A01CD990C20" bpmn2nodeid="_C858E2FC-48DA-4A8D-8F6E-5A3C54178413"><g class="stencils"><g class="me"><g pointer-events="painted" bpmn2nodeid="_C858E2FC-48DA-4A8D-8F6E-5A3C54178413"><path id="_89575A3C-FE90-41B4-9507-9A01CD990C20_1" d="M520.453113769534 180.23911428326792L554.718761230466 180.40151071673208 " stroke="#000000" fill="none" stroke-width="2" stroke-linecap="round" stroke-linejoin="round" marker-start="url(#_89575A3C-FE90-41B4-9507-9A01CD990C20start)" marker-end="url(#_89575A3C-FE90-41B4-9507-9A01CD990C20end)"/></g><text id="_89575A3C-FE90-41B4-9507-9A01CD990C20text_name" font-size="12" x="534.453113769534" y="166.23911428326792" oryx:edgePosition="startTop" stroke-width="0pt" letter-spacing="-0.01px" fill="#000000" text-anchor="start" transform="rotate(0.2715419456845325 520.453113769534 180.23911428326792)" visibility="inherit" oryx:fontSize="12"/></g><g class="children" style="overflow:hidden"/><g class="edge"/></g><g class="controls"><g class="dockers"/><g class="magnets"/></g></g><g id="_29EAC20B-CCF5-45FA-9891-370FF3A20CFC" bpmn2nodeid="_6C5DC788-0E99-4BC0-AF74-54FE943BA19C"><g class="stencils"><g class="me"><g pointer-events="painted" bpmn2nodeid="_6C5DC788-0E99-4BC0-AF74-54FE943BA19C"><path id="_29EAC20B-CCF5-45FA-9891-370FF3A20CFC_1" d="M575.5 159.90625L575.5 76 L360 76 L360 159.5 " stroke="#000000" fill="none" stroke-width="2" stroke-linecap="round" stroke-linejoin="round" marker-start="url(#_29EAC20B-CCF5-45FA-9891-370FF3A20CFCstart)" marker-end="url(#_29EAC20B-CCF5-45FA-9891-370FF3A20CFCend)"/></g><text id="_29EAC20B-CCF5-45FA-9891-370FF3A20CFCtext_name" font-size="12" x="589.5" y="145.90625" oryx:edgePosition="startTop" stroke-width="0pt" letter-spacing="-0.01px" fill="#000000" text-anchor="start" transform="rotate(270 575.5 159.90625)" visibility="inherit" oryx:fontSize="12"/></g><g class="children" style="overflow:hidden"/><g class="edge"/></g><g class="controls"><g class="dockers"/><g class="magnets"/></g></g><g id="_77AA5F58-FA1F-4611-8F45-5E87BB5BFD7D" bpmn2nodeid="_A732E67B-80F6-43C9-B870-BD5736C48688"><g class="stencils"><g class="me"><g pointer-events="painted" bpmn2nodeid="_A732E67B-80F6-43C9-B870-BD5736C48688"><path id="_77AA5F58-FA1F-4611-8F45-5E87BB5BFD7D_1" d="M594.9687371166395 180.4011739232658L659.1484503833605 180.0753885767342 " stroke="#000000" fill="none" stroke-width="2" stroke-linecap="round" stroke-linejoin="round" marker-start="url(#_77AA5F58-FA1F-4611-8F45-5E87BB5BFD7Dstart)" marker-end="url(#_77AA5F58-FA1F-4611-8F45-5E87BB5BFD7Dend)"/></g><text id="_77AA5F58-FA1F-4611-8F45-5E87BB5BFD7Dtext_name" font-size="12" x="608.9687371166395" y="166.4011739232658" oryx:edgePosition="startTop" stroke-width="0pt" letter-spacing="-0.01px" fill="#000000" text-anchor="start" transform="rotate(359.70916097764945 594.9687371166395 180.4011739232658)" visibility="inherit" oryx:fontSize="12"/></g><g class="children" style="overflow:hidden"/><g class="edge"/></g><g class="controls"><g class="dockers"/><g class="magnets"/></g></g></g><text id="_2CA67C1E-A61E-442E-B620-52B553A46D44" style="stroke-width:1;fill:rgb(177,194,214);font-family:arial;font-weight:bold" font-size="12" onclick="ORYX.Plugins.CanvasTitle.openTextualAnalysis()" onmouseover="ORYX.Plugins.CanvasTitle.addToolTip('_2CA67C1E-A61E-442E-B620-52B553A46D44')" transform="translate(10, 20)">MainProcess v.1.0 (SignalEventPOC.MainProcess)</text></g></g></svg>