<svg xmlns="http://www.w3.org/2000/svg" xmlns:oryx="http://oryx-editor.org" id="_914ECF75-E937-4967-AFC1-8290070F2843" width="615" height="256" xmlns:xlink="http://www.w3.org/1999/xlink" xmlns:svg="http://www.w3.org/2000/svg"><defs><marker id="_9C6AEDCC-8DDD-485D-B407-E98520144140start" refX="1" refY="5" markerUnits="userSpaceOnUse" markerWidth="17" markerHeight="11" orient="auto" fill="#000000" stroke="#000000"> 	  		<path id="_9C6AEDCC-8DDD-485D-B407-E98520144140conditional" d="M 0 5 L 8 0 L 16 5 L 8 10 L 0 5" fill="white" stroke="#000000" stroke-width="1" display="none"/> 			<path id="_9C6AEDCC-8DDD-485D-B407-E98520144140default" d="M 5 0 L 11 10" fill="white" stroke="#000000" stroke-width="1" display="none"/> 	  	</marker><marker id="_9C6AEDCC-8DDD-485D-B407-E98520144140end" refX="15" refY="6" markerUnits="userSpaceOnUse" markerWidth="15" markerHeight="12" orient="auto" fill="#000000" stroke="#000000"> 	  		<path id="_9C6AEDCC-8DDD-485D-B407-E98520144140frame2" d="M 0 1 L 15 6 L 0 11z" fill="#000000" stroke="#000000" stroke-linejoin="round" stroke-width="2"/> 	  	</marker><marker id="_4D8A42D3-AB86-4F40-8CDD-5185F5862FB9start" refX="1" refY="5" markerUnits="userSpaceOnUse" markerWidth="17" markerHeight="11" orient="auto" fill="#000000" stroke="#000000"> 	  		<path id="_4D8A42D3-AB86-4F40-8CDD-5185F5862FB9conditional" d="M 0 5 L 8 0 L 16 5 L 8 10 L 0 5" fill="white" stroke="#000000" stroke-width="1" display="none"/> 			<path id="_4D8A42D3-AB86-4F40-8CDD-5185F5862FB9default" d="M 5 0 L 11 10" fill="white" stroke="#000000" stroke-width="1" display="none"/> 	  	</marker><marker id="_4D8A42D3-AB86-4F40-8CDD-5185F5862FB9end" refX="15" refY="6" markerUnits="userSpaceOnUse" markerWidth="15" markerHeight="12" orient="auto" fill="#000000" stroke="#000000"> 	  		<path id="_4D8A42D3-AB86-4F40-8CDD-5185F5862FB9frame2" d="M 0 1 L 15 6 L 0 11z" fill="#000000" stroke="#000000" stroke-linejoin="round" stroke-width="2"/> 	  	</marker><marker id="_77183D1A-F02D-4A77-9BFB-942464015844start" refX="1" refY="5" markerUnits="userSpaceOnUse" markerWidth="17" markerHeight="11" orient="auto" fill="#000000" stroke="#000000"> 	  		<path id="_77183D1A-F02D-4A77-9BFB-942464015844conditional" d="M 0 5 L 8 0 L 16 5 L 8 10 L 0 5" fill="white" stroke="#000000" stroke-width="1" display="none"/> 			<path id="_77183D1A-F02D-4A77-9BFB-942464015844default" d="M 5 0 L 11 10" fill="white" stroke="#000000" stroke-width="1" display="none"/> 	  	</marker><marker id="_77183D1A-F02D-4A77-9BFB-942464015844end" refX="15" refY="6" markerUnits="userSpaceOnUse" markerWidth="15" markerHeight="12" orient="auto" fill="#000000" stroke="#000000"> 	  		<path id="_77183D1A-F02D-4A77-9BFB-942464015844frame2" d="M 0 1 L 15 6 L 0 11z" fill="#000000" stroke="#000000" stroke-linejoin="round" stroke-width="2"/> 	  	</marker><marker id="_F72AA8FB-059E-40CC-B533-8A9DCC6DE53Cstart" refX="1" refY="5" markerUnits="userSpaceOnUse" markerWidth="17" markerHeight="11" orient="auto" fill="#000000" stroke="#000000"> 	  		<path id="_F72AA8FB-059E-40CC-B533-8A9DCC6DE53Cconditional" d="M 0 5 L 8 0 L 16 5 L 8 10 L 0 5" fill="white" stroke="#000000" stroke-width="1" display="none"/> 			<path id="_F72AA8FB-059E-40CC-B533-8A9DCC6DE53Cdefault" d="M 5 0 L 11 10" fill="white" stroke="#000000" stroke-width="1" display="none"/> 	  	</marker><marker id="_F72AA8FB-059E-40CC-B533-8A9DCC6DE53Cend" refX="15" refY="6" markerUnits="userSpaceOnUse" markerWidth="15" markerHeight="12" orient="auto" fill="#000000" stroke="#000000"> 	  		<path id="_F72AA8FB-059E-40CC-B533-8A9DCC6DE53Cframe2" d="M 0 1 L 15 6 L 0 11z" fill="#000000" stroke="#000000" stroke-linejoin="round" stroke-width="2"/> 	  	</marker><marker id="_E0DCE818-97ED-4F46-AE74-9E97F23424BAstart" refX="1" refY="5" markerUnits="userSpaceOnUse" markerWidth="17" markerHeight="11" orient="auto" fill="#000000" stroke="#000000"> 	  		<path id="_E0DCE818-97ED-4F46-AE74-9E97F23424BAconditional" d="M 0 5 L 8 0 L 16 5 L 8 10 L 0 5" fill="white" stroke="#000000" stroke-width="1" display="none"/> 			<path id="_E0DCE818-97ED-4F46-AE74-9E97F23424BAdefault" d="M 5 0 L 11 10" fill="white" stroke="#000000" stroke-width="1" display="none"/> 	  	</marker><marker id="_E0DCE818-97ED-4F46-AE74-9E97F23424BAend" refX="15" refY="6" markerUnits="userSpaceOnUse" markerWidth="15" markerHeight="12" orient="auto" fill="#000000" stroke="#000000"> 	  		<path id="_E0DCE818-97ED-4F46-AE74-9E97F23424BAframe2" d="M 0 1 L 15 6 L 0 11z" fill="#000000" stroke="#000000" stroke-linejoin="round" stroke-width="2"/> 	  	</marker><marker id="_890F0B1F-0D14-40BC-883E-3BC95C7D8D99start" refX="1" refY="5" markerUnits="userSpaceOnUse" markerWidth="17" markerHeight="11" orient="auto" fill="#000000" stroke="#000000"> 	  		<path id="_890F0B1F-0D14-40BC-883E-3BC95C7D8D99conditional" d="M 0 5 L 8 0 L 16 5 L 8 10 L 0 5" fill="white" stroke="#000000" stroke-width="1" display="none"/> 			<path id="_890F0B1F-0D14-40BC-883E-3BC95C7D8D99default" d="M 5 0 L 11 10" fill="white" stroke="#000000" stroke-width="1" display="none"/> 	  	</marker><marker id="_890F0B1F-0D14-40BC-883E-3BC95C7D8D99end" refX="15" refY="6" markerUnits="userSpaceOnUse" markerWidth="15" markerHeight="12" orient="auto" fill="#000000" stroke="#000000"> 	  		<path id="_890F0B1F-0D14-40BC-883E-3BC95C7D8D99frame2" d="M 0 1 L 15 6 L 0 11z" fill="#000000" stroke="#000000" stroke-linejoin="round" stroke-width="2"/> 	  	</marker></defs><g stroke="none" font-family="Verdana, sans-serif" font-size-adjust="none" font-style="normal" font-variant="normal" font-weight="normal" line-heigth="normal" font-size="12"><g class="stencils" transform="translate(15, 16)"><g class="me"/><g class="children"><g id="_DC598253-F5E9-41A1-9249-B2D411D34404" bpmn2nodeid="processStartEvent"><g class="stencils" transform="translate(60, 165)"><g class="me"><g pointer-events="fill" id="_DC598253-F5E9-41A1-9249-B2D411D34404">        <defs id="_DC598253-F5E9-41A1-9249-B2D411D34404__DC598253-F5E9-41A1-9249-B2D411D34404_5"> 		<radialGradient id="_DC598253-F5E9-41A1-9249-B2D411D34404background" cx="10%" cy="10%" r="100%" fx="10%" fy="10%"> 			<stop offset="0%" stop-color="#ffffff" stop-opacity="1" id="_DC598253-F5E9-41A1-9249-B2D411D34404__DC598253-F5E9-41A1-9249-B2D411D34404_6"/> 			<stop id="_DC598253-F5E9-41A1-9249-B2D411D34404fill_el" offset="100%" stop-color="#9acd32" stop-opacity="1"/> 		</radialGradient> 	</defs> 	     <circle id="_DC598253-F5E9-41A1-9249-B2D411D34404bg_frame" cx="15" cy="15" r="15" stroke="#000000" fill="url(#_DC598253-F5E9-41A1-9249-B2D411D34404background) white" stroke-width="1" style="stroke-dasharray: 5.5, 3"/>      <circle id="_DC598253-F5E9-41A1-9249-B2D411D34404frame" cx="15" cy="15" r="15" stroke="#000000" fill="none" stroke-width="1" display="inherit"/>  	<text font-size="11" id="_DC598253-F5E9-41A1-9249-B2D411D34404text_name" x="15" y="32" oryx:align="top center" stroke="black" stroke-width="0pt" letter-spacing="-0.01px" fill="#000000" text-anchor="middle" transform="rotate(0 15 32)" visibility="inherit" oryx:fontSize="11"/>   </g></g><g class="children" style="overflow:hidden"/><g class="edge"/></g><g class="controls"><g class="dockers"/><g class="magnets" transform="translate(60, 165)"><g pointer-events="all" display="none" transform="translate(7, 7)"><circle cx="8" cy="8" r="4" stroke="none" fill="red" fill-opacity="0.3"/></g></g></g></g><g id="_77ECB68A-3702-4B2E-887F-B4B768F365BD" bpmn2nodeid="_61431311-EC79-46E4-97F2-A86E23CA007B"><g class="stencils" transform="translate(135, 161)"><g class="me"><g id="_77ECB68A-3702-4B2E-887F-B4B768F365BD">      <defs id="_77ECB68A-3702-4B2E-887F-B4B768F365BD__77ECB68A-3702-4B2E-887F-B4B768F365BD_4"> 		<radialGradient id="_77ECB68A-3702-4B2E-887F-B4B768F365BDbackground" cx="10%" cy="10%" r="100%" fx="10%" fy="10%"> 			<stop offset="0%" stop-color="#ffffff" stop-opacity="1" id="_77ECB68A-3702-4B2E-887F-B4B768F365BD__77ECB68A-3702-4B2E-887F-B4B768F365BD_5"/> 			<stop id="_77ECB68A-3702-4B2E-887F-B4B768F365BDfill_el" offset="100%" stop-color="#f0e68c" stop-opacity="1"/> 		</radialGradient> 	</defs> 	     <path d=" M0 20.5  L20.5 0  L40 20.5  L20.5 40  z" id="_77ECB68A-3702-4B2E-887F-B4B768F365BDbg_frame" fill="url(#_77ECB68A-3702-4B2E-887F-B4B768F365BDbackground) white" style="stroke-width:1" stroke="#a67f00"/>     <path id="_77ECB68A-3702-4B2E-887F-B4B768F365BDframe" d=" M11.25 20.5  L30.25 20.5  M20.5 11.25  L20.5 30.25 " style="fill:none;stroke-width:3" stroke="#a67f00"/>      	<text id="_77ECB68A-3702-4B2E-887F-B4B768F365BDtext_name" x="30.5" y="30.5" oryx:align="left top" stroke-width="0pt" letter-spacing="-0.01px" fill="#000000" text-anchor="start" transform="rotate(0 30.5 30.5)" visibility="inherit" oryx:fontSize="12"/> 	   </g></g><g class="children" style="overflow:hidden"/><g class="edge"/></g><g class="controls"><g class="dockers"/><g class="magnets" transform="translate(135, 161)"><g pointer-events="all" display="none" transform="translate(12.5, 12.5)"><circle cx="8" cy="8" r="4" stroke="none" fill="red" fill-opacity="0.3"/></g></g></g></g><g id="_26F0B908-C265-4E3A-B6C0-FC39A9E8BD6A" bpmn2nodeid="_F8385E65-CED8-48FF-87B0-6C1CF1844F8D"><g class="stencils" transform="translate(220, 161)"><g class="me"><g id="_26F0B908-C265-4E3A-B6C0-FC39A9E8BD6A">        <defs id="_26F0B908-C265-4E3A-B6C0-FC39A9E8BD6A__26F0B908-C265-4E3A-B6C0-FC39A9E8BD6A_4"> 		<radialGradient id="_26F0B908-C265-4E3A-B6C0-FC39A9E8BD6Abackground" cx="10%" cy="10%" r="100%" fx="10%" fy="10%"> 			<stop offset="0%" stop-color="#ffffff" stop-opacity="1" id="_26F0B908-C265-4E3A-B6C0-FC39A9E8BD6A__26F0B908-C265-4E3A-B6C0-FC39A9E8BD6A_5"/> 			<stop id="_26F0B908-C265-4E3A-B6C0-FC39A9E8BD6Afill_el" offset="100%" stop-color="#f0e68c" stop-opacity="1"/> 		</radialGradient> 		<radialGradient id="_26F0B908-C265-4E3A-B6C0-FC39A9E8BD6Aborderbackground" cx="10%" cy="10%" r="100%" fx="10%" fy="10%"> 			<stop offset="0%" stop-color="#ffffff" stop-opacity="1" id="_26F0B908-C265-4E3A-B6C0-FC39A9E8BD6A__26F0B908-C265-4E3A-B6C0-FC39A9E8BD6A_6"/> 			<stop id="_26F0B908-C265-4E3A-B6C0-FC39A9E8BD6Afill_border" offset="100%" stop-color="#a67f00" stop-opacity="1" stroke="#a67f00"/> 		</radialGradient> 	</defs> 	     <path d=" M0 20.5  L20.5 0  L40 20.5  L20.5 40  z" id="_26F0B908-C265-4E3A-B6C0-FC39A9E8BD6Abg_frame" fill="url(#_26F0B908-C265-4E3A-B6C0-FC39A9E8BD6Abackground) white" style="stroke-width:1" stroke="#a67f00"/>     <g id="_26F0B908-C265-4E3A-B6C0-FC39A9E8BD6Aframe" stroke="#a67f00">       <path id="_26F0B908-C265-4E3A-B6C0-FC39A9E8BD6Aframe2" d=" M13.25 12.05  L17.25 12.05  L27.65 28.95  L23.75 28.95  z" style="stroke-width:1" stroke="#a67f00" fill="url(#_26F0B908-C265-4E3A-B6C0-FC39A9E8BD6Aborderbackground)"/>       <path id="_26F0B908-C265-4E3A-B6C0-FC39A9E8BD6Aframe3" d=" M13.25 28.95  L23.75 12.05  L27.65 12.05  L17.25 28.95  z" style="stroke-width:1" stroke="#a67f00" fill="url(#_26F0B908-C265-4E3A-B6C0-FC39A9E8BD6Aborderbackground)"/>     </g> 	 	<text id="_26F0B908-C265-4E3A-B6C0-FC39A9E8BD6Atext_name" x="30.5" y="30.5" oryx:align="left top" stroke-width="0pt" letter-spacing="-0.01px" fill="#000000" text-anchor="start" transform="rotate(0 30.5 30.5)" visibility="inherit" oryx:fontSize="12"/> 	   </g></g><g class="children" style="overflow:hidden"/><g class="edge"/></g><g class="controls"><g class="dockers"/><g class="magnets" transform="translate(220, 161)"><g pointer-events="all" display="none" transform="translate(12.5, 12.5)"><circle cx="8" cy="8" r="4" stroke="none" fill="red" fill-opacity="0.3"/></g></g></g></g><g id="_BF848DCD-CB41-4DAF-ACD8-74433B0B4760" bpmn2nodeid="_ED686718-AB7B-40A9-B427-37DA3513BFC8"><g class="stencils" transform="translate(300, 135)"><g class="me"><g pointer-events="fill" oryx:minimumSize="50 40" id="_BF848DCD-CB41-4DAF-ACD8-74433B0B4760">   	<defs id="_BF848DCD-CB41-4DAF-ACD8-74433B0B4760__BF848DCD-CB41-4DAF-ACD8-74433B0B4760_17"> 		<radialGradient id="_BF848DCD-CB41-4DAF-ACD8-74433B0B4760background" cx="10%" cy="10%" r="100%" fx="10%" fy="10%"> 			<stop offset="0%" stop-color="#ffffff" stop-opacity="1" id="_BF848DCD-CB41-4DAF-ACD8-74433B0B4760__BF848DCD-CB41-4DAF-ACD8-74433B0B4760_18"/> 			<stop id="_BF848DCD-CB41-4DAF-ACD8-74433B0B4760fill_el" offset="100%" stop-color="#fafad2" stop-opacity="1"/> 		</radialGradient> 		<radialGradient id="_BF848DCD-CB41-4DAF-ACD8-74433B0B4760borderbackground" cx="10%" cy="10%" r="100%" fx="10%" fy="10%"> 			<stop offset="0%" stop-color="#ffffff" stop-opacity="1" id="_BF848DCD-CB41-4DAF-ACD8-74433B0B4760__BF848DCD-CB41-4DAF-ACD8-74433B0B4760_19"/> 			<stop id="_BF848DCD-CB41-4DAF-ACD8-74433B0B4760fill_border" offset="100%" stop-color="#000000" stop-opacity="1" stroke="#000000"/> 		</radialGradient> 	</defs> 	 	<rect id="_BF848DCD-CB41-4DAF-ACD8-74433B0B4760text_frame" oryx:anchors="bottom top right left" x="1" y="1" width="94" height="79" rx="10" ry="10" stroke="none" stroke-width="0" fill="none"/> 	<rect id="_BF848DCD-CB41-4DAF-ACD8-74433B0B4760bg_frame" oryx:resize="vertical horizontal" x="0" y="0" width="100" height="80" rx="10" ry="10" stroke="#000000" stroke-width="1" fill="url(#_BF848DCD-CB41-4DAF-ACD8-74433B0B4760background) #ffffcc"/> 		<text font-size="12" id="_BF848DCD-CB41-4DAF-ACD8-74433B0B4760text_name" x="50" y="40" oryx:align="middle center" oryx:fittoelem="text_frame" stroke="black" text-anchor="middle" stroke-width="0pt" letter-spacing="-0.01px" fill="#000000" transform="rotate(0 50 40)" visibility="inherit" oryx:fontSize="12"><tspan x="50" y="40" dy="5">Admin</tspan></text>     <g id="_BF848DCD-CB41-4DAF-ACD8-74433B0B4760manualTask" transform="scale(0.7,0.7) translate(8,8)" display="none">     	<path oryx:anchors="top left" id="_BF848DCD-CB41-4DAF-ACD8-74433B0B4760frame" style="opacity:1;fill:none;fill-opacity:1;stroke-width:1" d="M0.5,3.751l4.083-3.25c0,0,11.166,0.083,12.083,0.083s-2.417,2.917-1.5,2.917     s11.667,0,12.584,0c1.166,1.708-0.168,3.167-0.834,3.667s0.875,1.917-1,4.417c-0.75,0.25,0.75,1.875-1.333,3.333     c-1.167,0.583,0.583,1.542-1.25,2.833c-1.167,0-20.833,0.083-20.833,0.083l-2-1.333V3.751z" stroke="#000000"/> 		<path id="_BF848DCD-CB41-4DAF-ACD8-74433B0B4760frame2" oryx:anchors="top left" style="opacity:1;fill:none;stroke-width:2" d="M 13.5 7 L 27 7" stroke="#000000"/> 		<path id="_BF848DCD-CB41-4DAF-ACD8-74433B0B4760frame3" oryx:anchors="top left" style="opacity:1;fill:none;stroke-width:2" d="M 13.5 11 L 26 11" stroke="#000000"/> 		<path id="_BF848DCD-CB41-4DAF-ACD8-74433B0B4760frame4" oryx:anchors="top left" style="opacity:1;fill:none;stroke-width:1.5" d="M 14 14.5 L 25 14.5" stroke="#000000"/> 		<path id="_BF848DCD-CB41-4DAF-ACD8-74433B0B4760frame5" oryx:anchors="top left" style="opacity:1;fill:none;stroke-width:1.5" d="M 8.2 3.1 L 15 3.1" stroke="#000000"/> 	</g> 	 	<g id="_BF848DCD-CB41-4DAF-ACD8-74433B0B4760businessRuleTask" transform="scale(0.7,0.7) translate(8,8)" display="none"> 		<rect id="_BF848DCD-CB41-4DAF-ACD8-74433B0B4760frame6" oryx:anchors="top left" x="0" y="0" width="22" height="4" style="opacity:1;fill:#B3B1B3;fill-opacity:1;" stroke="#000000"/> 		<rect id="_BF848DCD-CB41-4DAF-ACD8-74433B0B4760frame7" oryx:anchors="top left" x="0" y="4" style="opacity:1;fill:none;" width="22" height="12" stroke="#000000"/> 		<path id="_BF848DCD-CB41-4DAF-ACD8-74433B0B4760frame8" oryx:anchors="top left" style="opacity:1;fill:none;" d="M 0 10 L 22 10" stroke="#000000"/> 		<path id="_BF848DCD-CB41-4DAF-ACD8-74433B0B4760frame9" oryx:anchors="top left" style="opacity:1; fill:none;" d="M 7 4 L 7 16" stroke="#000000"/> 	</g> 	 	<g id="_BF848DCD-CB41-4DAF-ACD8-74433B0B4760scriptTask" transform="scale(0.7,0.7) translate(8,8)" display="none"> 		<path oryx:anchors="top left" id="_BF848DCD-CB41-4DAF-ACD8-74433B0B4760frame10" style="opacity:1;fill:none;" stroke="#000000" d="M6.402,0.5h14.5c0,0-5.833,2.833-5.833,5.583s4.417,6,4.417,9.167    s-4.167,5.083-4.167,5.083H0.235c0,0,5-2.667,5-5s-4.583-6.75-4.583-9.25S6.402,0.5,6.402,0.5z"/> 		<path oryx:anchors="top left" id="_BF848DCD-CB41-4DAF-ACD8-74433B0B4760frame11" style="opacity:1;fill:none;stroke-width:1.5" d="M 3.5 4.5 L 13.5 4.5" stroke="#000000"/> 		<path oryx:anchors="top left" id="_BF848DCD-CB41-4DAF-ACD8-74433B0B4760frame12" style="opacity:1;fill:none;stroke-width:1.5" d="M 3.8 8.5 L 13.8 8.5" stroke="#000000"/> 		<path oryx:anchors="top left" id="_BF848DCD-CB41-4DAF-ACD8-74433B0B4760frame13" style="opacity:1;fill:none;stroke-width:1.5" d="M 6.3 12.5 L 16.3 12.5" stroke="#000000"/> 		<path oryx:anchors="top left" id="_BF848DCD-CB41-4DAF-ACD8-74433B0B4760frame14" style="opacity:1;fill:none;stroke-width:1.5" d="M 6.5 16.5 L 16.5 16.5" stroke="#000000"/> 	</g> 	 	<g id="_BF848DCD-CB41-4DAF-ACD8-74433B0B4760userTask" transform="scale(0.7,0.7) translate(8,8)" display="inherit"> 		<path id="_BF848DCD-CB41-4DAF-ACD8-74433B0B4760frame15" oryx:anchors="top left" style="opacity:1;fill:#F4F6F7" stroke="#000000" d="M0.585,24.167h24.083v-7.833c0,0-2.333-3.917-7.083-5.167h-9.25    c-4.417,1.333-7.833,5.75-7.833,5.75L0.585,24.167z"/> 		<path id="_BF848DCD-CB41-4DAF-ACD8-74433B0B4760frame16" oryx:anchors="top left" style="opacity:1;fill:none" d="M 6 20 L 6 24" stroke="#000000"/> 		<path id="_BF848DCD-CB41-4DAF-ACD8-74433B0B4760frame17" oryx:anchors="top left" style="opacity:1;fill:none" d="M 20 20 L 20 24" stroke="#000000"/> 		<circle id="_BF848DCD-CB41-4DAF-ACD8-74433B0B4760frame18" oryx:anchors="top left" fill="black" cx="13.002" cy="5.916" r="5.417" stroke="#000000"/> 		<path id="_BF848DCD-CB41-4DAF-ACD8-74433B0B4760frame19" oryx:anchors="top left" style="opacity:1;fill:#F0EFF0;" stroke="#000000" d="M8.043,7.083c0,0,2.814-2.426,5.376-1.807s4.624-0.693,4.624-0.693    c0.25,1.688,0.042,3.75-1.458,5.584c0,0,1.083,0.75,1.083,1.5s0.125,1.875-1,3s-5.5,1.25-6.75,0S8.668,12.834,8.668,12    s0.583-1.25,1.25-1.917C8.835,9.5,7.419,7.708,8.043,7.083z"/> 	</g> 	 	<g id="_BF848DCD-CB41-4DAF-ACD8-74433B0B4760serviceTask" transform="scale(0.7,0.7) translate(8,8)" display="none"> 		<polygon oryx:anchors="top left" id="_BF848DCD-CB41-4DAF-ACD8-74433B0B4760frame20" style="opacity:1;fill:#ffffff" stroke="#000000" points="15.392,5.064 17.954,2.502 20.347,4.895 17.786,7.455     18.729,9.732 22.353,9.732 22.353,13.115 18.731,13.115 17.788,15.392 20.351,17.955 17.958,20.347 15.397,17.786 13.12,18.729     13.12,22.353 9.737,22.353 9.737,18.731 7.46,17.788 4.897,20.35 2.506,17.958 5.066,15.397 4.124,13.12 0.5,13.12 0.5,9.737     4.121,9.737 5.065,7.461 2.503,4.898 4.895,2.506 7.455,5.066 9.732,4.125 9.732,0.5 13.116,0.5 13.116,4.121 "/> 		<circle oryx:anchors="top left" id="_BF848DCD-CB41-4DAF-ACD8-74433B0B4760frame21" style="opacity:1;fill:none" stroke="#000000" cx="11.427" cy="11.426" r="3.714"/> 		<polygon oryx:anchors="top left" id="_BF848DCD-CB41-4DAF-ACD8-74433B0B4760frame22" style="opacity:1;fill:#ffffff" stroke="#000000" points="21.392,11.064 23.954,8.502 26.347,10.895 23.786,13.455     24.729,15.732 28.353,15.732 28.353,19.115 24.731,19.115 23.788,21.392 26.351,23.955 23.958,26.347 21.397,23.786 19.12,24.729     19.12,28.353 15.737,28.353 15.737,24.731 13.46,23.788 10.897,26.35 8.506,23.958 11.066,21.397 10.124,19.12 6.5,19.12     6.5,15.737 10.121,15.737 11.065,13.461 8.503,10.898 10.895,8.506 13.455,11.066 15.732,10.125 15.732,6.5 19.116,6.5     19.116,10.121 "/> 		<circle oryx:anchors="top left" id="_BF848DCD-CB41-4DAF-ACD8-74433B0B4760frame23" style="opacity:1;fill:none;" stroke="#000000" cx="17.427" cy="17.426" r="3.714"/> 	</g> 	 	<g id="_BF848DCD-CB41-4DAF-ACD8-74433B0B4760sendTask" display="none"> 		<path id="_BF848DCD-CB41-4DAF-ACD8-74433B0B4760stframe24" oryx:anchors="left top" stroke="#FFFFFF" fill="black" stroke-width="1" d="M8,11 L8,21 L24,21 L24,11 L16,17z"/> 		<path id="_BF848DCD-CB41-4DAF-ACD8-74433B0B4760stframe25" oryx:anchors="left top" stroke="#FFFFFF" fill="black" stroke-width="1" d="M7,10 L16,17 L25 10z"/> 	</g> 	 	<g id="_BF848DCD-CB41-4DAF-ACD8-74433B0B4760receiveTask" display="none"> 		<path id="_BF848DCD-CB41-4DAF-ACD8-74433B0B4760frame26" oryx:anchors="left top" stroke="#000000" fill="none" stroke-width="1" d="M8,11 L8,21 L24,21 L24,11z M8,11 L16,17 L24,11"/> 	</g> 	 	<g id="_BF848DCD-CB41-4DAF-ACD8-74433B0B4760none" display="none"/>  	<g id="_BF848DCD-CB41-4DAF-ACD8-74433B0B4760sequential" display="none">         <path oryx:anchors="bottom" fill="none" stroke="#000000" stroke-width="2" d="M46,76h10M46,72h10 M46,68h10" id="_BF848DCD-CB41-4DAF-ACD8-74433B0B4760__BF848DCD-CB41-4DAF-ACD8-74433B0B4760_20"/>     </g>   </g></g><g class="children" style="overflow:hidden"/><g class="edge"/></g><g class="controls"><g class="dockers"/><g class="magnets" transform="translate(300, 135)"><g pointer-events="all" display="none" transform="translate(-7, 12)"><circle cx="8" cy="8" r="4" stroke="none" fill="red" fill-opacity="0.3"/></g><g pointer-events="all" display="none" transform="translate(-7, 32)"><circle cx="8" cy="8" r="4" stroke="none" fill="red" fill-opacity="0.3"/></g><g pointer-events="all" display="none" transform="translate(-7, 52)"><circle cx="8" cy="8" r="4" stroke="none" fill="red" fill-opacity="0.3"/></g><g pointer-events="all" display="none" transform="translate(17, 71)"><circle cx="8" cy="8" r="4" stroke="none" fill="red" fill-opacity="0.3"/></g><g pointer-events="all" display="none" transform="translate(42, 71)"><circle cx="8" cy="8" r="4" stroke="none" fill="red" fill-opacity="0.3"/></g><g pointer-events="all" display="none" transform="translate(67, 71)"><circle cx="8" cy="8" r="4" stroke="none" fill="red" fill-opacity="0.3"/></g><g pointer-events="all" display="none" transform="translate(91, 12)"><circle cx="8" cy="8" r="4" stroke="none" fill="red" fill-opacity="0.3"/></g><g pointer-events="all" display="none" transform="translate(91, 32)"><circle cx="8" cy="8" r="4" stroke="none" fill="red" fill-opacity="0.3"/></g><g pointer-events="all" display="none" transform="translate(91, 52)"><circle cx="8" cy="8" r="4" stroke="none" fill="red" fill-opacity="0.3"/></g><g pointer-events="all" display="none" transform="translate(17, -7)"><circle cx="8" cy="8" r="4" stroke="none" fill="red" fill-opacity="0.3"/></g><g pointer-events="all" display="none" transform="translate(42, -7)"><circle cx="8" cy="8" r="4" stroke="none" fill="red" fill-opacity="0.3"/></g><g pointer-events="all" display="none" transform="translate(67, -7)"><circle cx="8" cy="8" r="4" stroke="none" fill="red" fill-opacity="0.3"/></g><g pointer-events="all" display="none" transform="translate(42, 32)"><circle cx="8" cy="8" r="4" stroke="none" fill="red" fill-opacity="0.3"/></g></g></g></g><g id="_1FE74637-BF01-4468-A8D5-776C9BDC418A" bpmn2nodeid="_99C728B1-988C-47BF-BDF0-5230BDBD2B5A"><g class="stencils" transform="translate(435, 155)"><g class="me"><g id="_1FE74637-BF01-4468-A8D5-776C9BDC418A">      <defs id="_1FE74637-BF01-4468-A8D5-776C9BDC418A__1FE74637-BF01-4468-A8D5-776C9BDC418A_4"> 		<radialGradient id="_1FE74637-BF01-4468-A8D5-776C9BDC418Abackground" cx="10%" cy="10%" r="100%" fx="10%" fy="10%"> 			<stop offset="0%" stop-color="#ffffff" stop-opacity="1" id="_1FE74637-BF01-4468-A8D5-776C9BDC418A__1FE74637-BF01-4468-A8D5-776C9BDC418A_5"/> 			<stop id="_1FE74637-BF01-4468-A8D5-776C9BDC418Afill_el" offset="100%" stop-color="#f0e68c" stop-opacity="1"/> 		</radialGradient> 	</defs> 	     <path d=" M0 20.5  L20.5 0  L40 20.5  L20.5 40  z" id="_1FE74637-BF01-4468-A8D5-776C9BDC418Abg_frame" fill="url(#_1FE74637-BF01-4468-A8D5-776C9BDC418Abackground) white" style="stroke-width:1" stroke="#a67f00"/>     <path id="_1FE74637-BF01-4468-A8D5-776C9BDC418Aframe" d=" M11.25 20.5  L30.25 20.5  M20.5 11.25  L20.5 30.25 " style="fill:none;stroke-width:3" stroke="#a67f00"/>      	<text id="_1FE74637-BF01-4468-A8D5-776C9BDC418Atext_name" x="30.5" y="30.5" oryx:align="left top" stroke-width="0pt" letter-spacing="-0.01px" fill="#000000" text-anchor="start" transform="rotate(0 30.5 30.5)" visibility="inherit" oryx:fontSize="12"/> 	   </g></g><g class="children" style="overflow:hidden"/><g class="edge"/></g><g class="controls"><g class="dockers"/><g class="magnets" transform="translate(435, 155)"><g pointer-events="all" display="none" transform="translate(12.5, 12.5)"><circle cx="8" cy="8" r="4" stroke="none" fill="red" fill-opacity="0.3"/></g></g></g></g><g id="_CB92EA3A-7772-491E-9560-4749A578E8B4" bpmn2nodeid="_B89B0778-647F-403A-83FD-D705CA59D86E"><g class="stencils" transform="translate(535, 155)"><g class="me"><g id="_CB92EA3A-7772-491E-9560-4749A578E8B4">        <defs id="_CB92EA3A-7772-491E-9560-4749A578E8B4__CB92EA3A-7772-491E-9560-4749A578E8B4_4"> 		<radialGradient id="_CB92EA3A-7772-491E-9560-4749A578E8B4background" cx="10%" cy="10%" r="100%" fx="10%" fy="10%"> 			<stop offset="0%" stop-color="#ffffff" stop-opacity="1" id="_CB92EA3A-7772-491E-9560-4749A578E8B4__CB92EA3A-7772-491E-9560-4749A578E8B4_5"/> 			<stop id="_CB92EA3A-7772-491E-9560-4749A578E8B4fill_el" offset="100%" stop-color="#f0e68c" stop-opacity="1"/> 		</radialGradient> 		<radialGradient id="_CB92EA3A-7772-491E-9560-4749A578E8B4borderbackground" cx="10%" cy="10%" r="100%" fx="10%" fy="10%"> 			<stop offset="0%" stop-color="#ffffff" stop-opacity="1" id="_CB92EA3A-7772-491E-9560-4749A578E8B4__CB92EA3A-7772-491E-9560-4749A578E8B4_6"/> 			<stop id="_CB92EA3A-7772-491E-9560-4749A578E8B4fill_border" offset="100%" stop-color="#a67f00" stop-opacity="1" stroke="#a67f00"/> 		</radialGradient> 	</defs> 	     <path d=" M0 20.5  L20.5 0  L40 20.5  L20.5 40  z" id="_CB92EA3A-7772-491E-9560-4749A578E8B4bg_frame" fill="url(#_CB92EA3A-7772-491E-9560-4749A578E8B4background) white" style="stroke-width:1" stroke="#a67f00"/>     <g id="_CB92EA3A-7772-491E-9560-4749A578E8B4frame" stroke="#a67f00">       <path id="_CB92EA3A-7772-491E-9560-4749A578E8B4frame2" d=" M13.25 12.05  L17.25 12.05  L27.65 28.95  L23.75 28.95  z" style="stroke-width:1" stroke="#a67f00" fill="url(#_CB92EA3A-7772-491E-9560-4749A578E8B4borderbackground)"/>       <path id="_CB92EA3A-7772-491E-9560-4749A578E8B4frame3" d=" M13.25 28.95  L23.75 12.05  L27.65 12.05  L17.25 28.95  z" style="stroke-width:1" stroke="#a67f00" fill="url(#_CB92EA3A-7772-491E-9560-4749A578E8B4borderbackground)"/>     </g> 	 	<text id="_CB92EA3A-7772-491E-9560-4749A578E8B4text_name" x="30.5" y="30.5" oryx:align="left top" stroke-width="0pt" letter-spacing="-0.01px" fill="#000000" text-anchor="start" transform="rotate(0 30.5 30.5)" visibility="inherit" oryx:fontSize="12"/> 	   </g></g><g class="children" style="overflow:hidden"/><g class="edge"/></g><g class="controls"><g class="dockers"/><g class="magnets" transform="translate(535, 155)"><g pointer-events="all" display="none" transform="translate(12.5, 12.5)"><circle cx="8" cy="8" r="4" stroke="none" fill="red" fill-opacity="0.3"/></g></g></g></g></g><g class="edge"><g id="_9C6AEDCC-8DDD-485D-B407-E98520144140" bpmn2nodeid="_301CEF59-4A06-42FE-A6EE-D975E31EFAEC"><g class="stencils"><g class="me"><g pointer-events="painted" bpmn2nodeid="_301CEF59-4A06-42FE-A6EE-D975E31EFAEC"><path id="_9C6AEDCC-8DDD-485D-B407-E98520144140_1" d="M90.37492188415408 180.19218652355192L135.25007811584592 180.75312597644808 " stroke="#000000" fill="none" stroke-width="2" stroke-linecap="round" stroke-linejoin="round" marker-start="url(#_9C6AEDCC-8DDD-485D-B407-E98520144140start)" marker-end="url(#_9C6AEDCC-8DDD-485D-B407-E98520144140end)"/></g><text id="_9C6AEDCC-8DDD-485D-B407-E98520144140text_name" font-size="12" x="104.37492188415408" y="166.19218652355192" oryx:edgePosition="startTop" stroke-width="0pt" letter-spacing="-0.01px" fill="#000000" text-anchor="start" transform="rotate(0.7161599454703946 90.37492188415408 180.19218652355192)" visibility="inherit" oryx:fontSize="12"/></g><g class="children" style="overflow:hidden"/><g class="edge"/></g><g class="controls"><g class="dockers"/><g class="magnets"/></g></g><g id="_4D8A42D3-AB86-4F40-8CDD-5185F5862FB9" bpmn2nodeid="_13F0CE6F-FCA7-47E2-B6FA-C53ECA34DABC"><g class="stencils"><g class="me"><g pointer-events="painted" bpmn2nodeid="_13F0CE6F-FCA7-47E2-B6FA-C53ECA34DABC"><path id="_4D8A42D3-AB86-4F40-8CDD-5185F5862FB9_1" d="M175.09375 181.5L219.578125 181.5 " stroke="#000000" fill="none" stroke-width="2" stroke-linecap="round" stroke-linejoin="round" marker-start="url(#_4D8A42D3-AB86-4F40-8CDD-5185F5862FB9start)" marker-end="url(#_4D8A42D3-AB86-4F40-8CDD-5185F5862FB9end)"/></g><text id="_4D8A42D3-AB86-4F40-8CDD-5185F5862FB9text_name" font-size="12" x="189.09375" y="167.5" oryx:edgePosition="startTop" stroke-width="0pt" letter-spacing="-0.01px" fill="#000000" text-anchor="start" transform="rotate(360 175.09375 181.5)" visibility="inherit" oryx:fontSize="12"/></g><g class="children" style="overflow:hidden"/><g class="edge"/></g><g class="controls"><g class="dockers"/><g class="magnets"/></g></g><g id="_77183D1A-F02D-4A77-9BFB-942464015844" bpmn2nodeid="_D1708F3B-CE7D-40AD-A03C-88C9FC1D1429"><g class="stencils"><g class="me"><g pointer-events="painted" bpmn2nodeid="_D1708F3B-CE7D-40AD-A03C-88C9FC1D1429"><path id="_77183D1A-F02D-4A77-9BFB-942464015844_1" d="M259.9012838636191 181.17052007069753L299.3845697056353 180.5 " stroke="#000000" fill="none" stroke-width="2" stroke-linecap="round" stroke-linejoin="round" marker-start="url(#_77183D1A-F02D-4A77-9BFB-942464015844start)" marker-end="url(#_77183D1A-F02D-4A77-9BFB-942464015844end)"/></g><text id="_77183D1A-F02D-4A77-9BFB-942464015844text_name" font-size="12" x="273.9012838636191" y="167.17052007069753" oryx:edgePosition="startTop" stroke-width="0pt" letter-spacing="-0.01px" fill="#000000" text-anchor="start" transform="rotate(359.02707495875137 259.9012838636191 181.17052007069753)" visibility="inherit" oryx:fontSize="12"/></g><g class="children" style="overflow:hidden"/><g class="edge"/></g><g class="controls"><g class="dockers"/><g class="magnets"/></g></g><g id="_F72AA8FB-059E-40CC-B533-8A9DCC6DE53C" bpmn2nodeid="_AFA7D4EA-1992-403E-B72F-68B88B736A4E"><g class="stencils"><g class="me"><g pointer-events="painted" bpmn2nodeid="_AFA7D4EA-1992-403E-B72F-68B88B736A4E"><path id="_F72AA8FB-059E-40CC-B533-8A9DCC6DE53C_1" d="M400.21875 175L435.1328125 175 " stroke="#000000" fill="none" stroke-width="2" stroke-linecap="round" stroke-linejoin="round" marker-start="url(#_F72AA8FB-059E-40CC-B533-8A9DCC6DE53Cstart)" marker-end="url(#_F72AA8FB-059E-40CC-B533-8A9DCC6DE53Cend)"/></g><text id="_F72AA8FB-059E-40CC-B533-8A9DCC6DE53Ctext_name" font-size="12" x="414.21875" y="161" oryx:edgePosition="startTop" stroke-width="0pt" letter-spacing="-0.01px" fill="#000000" text-anchor="start" transform="rotate(360 400.21875 175)" visibility="inherit" oryx:fontSize="12"/></g><g class="children" style="overflow:hidden"/><g class="edge"/></g><g class="controls"><g class="dockers"/><g class="magnets"/></g></g><g id="_E0DCE818-97ED-4F46-AE74-9E97F23424BA" bpmn2nodeid="_CA213404-3577-4F09-80B5-E46D47CEE2FF"><g class="stencils"><g class="me"><g pointer-events="painted" bpmn2nodeid="_CA213404-3577-4F09-80B5-E46D47CEE2FF"><path id="_E0DCE818-97ED-4F46-AE74-9E97F23424BA_1" d="M475.25 175.5L534.1875 175.5 " stroke="#000000" fill="none" stroke-width="2" stroke-linecap="round" stroke-linejoin="round" marker-start="url(#_E0DCE818-97ED-4F46-AE74-9E97F23424BAstart)" marker-end="url(#_E0DCE818-97ED-4F46-AE74-9E97F23424BAend)"/></g><text id="_E0DCE818-97ED-4F46-AE74-9E97F23424BAtext_name" font-size="12" x="489.25" y="161.5" oryx:edgePosition="startTop" stroke-width="0pt" letter-spacing="-0.01px" fill="#000000" text-anchor="start" transform="rotate(360 475.25 175.5)" visibility="inherit" oryx:fontSize="12"/></g><g class="children" style="overflow:hidden"/><g class="edge"/></g><g class="controls"><g class="dockers"/><g class="magnets"/></g></g><g id="_890F0B1F-0D14-40BC-883E-3BC95C7D8D99" bpmn2nodeid="_C9606661-40B6-48F8-A0D2-8D607F390295"><g class="stencils"><g class="me"><g pointer-events="painted" bpmn2nodeid="_C9606661-40B6-48F8-A0D2-8D607F390295"><path id="_890F0B1F-0D14-40BC-883E-3BC95C7D8D99_1" d="M240.5 160.046875L240.5 88 L455 88 L455 154.96875 " stroke="#000000" fill="none" stroke-width="2" stroke-linecap="round" stroke-linejoin="round" marker-start="url(#_890F0B1F-0D14-40BC-883E-3BC95C7D8D99start)" marker-end="url(#_890F0B1F-0D14-40BC-883E-3BC95C7D8D99end)"/></g><text id="_890F0B1F-0D14-40BC-883E-3BC95C7D8D99text_name" font-size="12" x="254.5" y="146.046875" oryx:edgePosition="startTop" stroke-width="0pt" letter-spacing="-0.01px" fill="#000000" text-anchor="start" transform="rotate(270 240.5 160.046875)" visibility="inherit" oryx:fontSize="12"/></g><g class="children" style="overflow:hidden"/><g class="edge"/></g><g class="controls"><g class="dockers"/><g class="magnets"/></g></g></g><text id="_43AF9D0A-9BB0-49FD-85CD-C7C83D4B1203" style="stroke-width:1;fill:rgb(177,194,214);font-family:arial;font-weight:bold" font-size="12" onclick="ORYX.Plugins.CanvasTitle.openTextualAnalysis()" onmouseover="ORYX.Plugins.CanvasTitle.addToolTip('_43AF9D0A-9BB0-49FD-85CD-C7C83D4B1203')" transform="translate(10, 20)">MRRSubPro v.1.0 (CPMMChase.MRRSubPro)</text></g></g></svg>